<?xml version="1.0" encoding="UTF-8" standalone="no"?>
<!DOCTYPE svg PUBLIC "-//W3C//DTD SVG 1.1//EN"
 "http://www.w3.org/Graphics/SVG/1.1/DTD/svg11.dtd">
<!-- Generated by graphviz version 13.1.0 (20250701.0955)
 -->
<!-- Title: prisma_flow Pages: 1 -->
<svg width="1834pt" height="590pt"
 viewBox="0.00 0.00 1834.00 590.00" xmlns="http://www.w3.org/2000/svg" xmlns:xlink="http://www.w3.org/1999/xlink">
<g id="graph0" class="graph" transform="scale(1 1) rotate(0) translate(4 586.25)">
<title>prisma_flow</title>
<polygon fill="white" stroke="none" points="-4,4 -4,-586.25 1830.25,-586.25 1830.25,4 -4,4"/>
<!-- ID -->
<g id="node1" class="node">
<title>ID</title>
<path fill="#e8f4fc" stroke="black" d="M1575.62,-582.25C1575.62,-582.25 1424.62,-582.25 1424.62,-582.25 1418.62,-582.25 1412.62,-576.25 1412.62,-570.25 1412.62,-570.25 1412.62,-518.75 1412.62,-518.75 1412.62,-512.75 1418.62,-506.75 1424.62,-506.75 1424.62,-506.75 1575.62,-506.75 1575.62,-506.75 1581.62,-506.75 1587.62,-512.75 1587.62,-518.75 1587.62,-518.75 1587.62,-570.25 1587.62,-570.25 1587.62,-576.25 1581.62,-582.25 1575.62,-582.25"/>
<text xml:space="preserve" text-anchor="middle" x="1500.12" y="-568.75" font-family="Helvetica,sans-Serif" font-size="10.00">IDENTIFICATION</text>
<text xml:space="preserve" text-anchor="middle" x="1500.12" y="-557.5" font-family="Helvetica,sans-Serif" font-size="10.00">repository: europe_pmc</text>
<text xml:space="preserve" text-anchor="middle" x="1500.12" y="-546.25" font-family="Helvetica,sans-Serif" font-size="10.00">raw query: &quot;climate change&quot;</text>
<text xml:space="preserve" text-anchor="middle" x="1500.12" y="-535" font-family="Helvetica,sans-Serif" font-size="10.00">limit: 50</text>
<text xml:space="preserve" text-anchor="middle" x="1500.12" y="-523.75" font-family="Helvetica,sans-Serif" font-size="10.00">records identified: 50</text>
<text xml:space="preserve" text-anchor="middle" x="1500.12" y="-512.5" font-family="Helvetica,sans-Serif" font-size="10.00">NOT database hitCount (= retrieved)</text>
</g>
<!-- RET -->
<g id="node2" class="node">
<title>RET</title>
<path fill="#eef9ee" stroke="black" d="M1436.25,-442.62C1436.25,-442.62 1274,-442.62 1274,-442.62 1268,-442.62 1262,-436.62 1262,-430.62 1262,-430.62 1262,-401.62 1262,-401.62 1262,-395.62 1268,-389.62 1274,-389.62 1274,-389.62 1436.25,-389.62 1436.25,-389.62 1442.25,-389.62 1448.25,-395.62 1448.25,-401.62 1448.25,-401.62 1448.25,-430.62 1448.25,-430.62 1448.25,-436.62 1442.25,-442.62 1436.25,-442.62"/>
<text xml:space="preserve" text-anchor="middle" x="1355.12" y="-429.12" font-family="Helvetica,sans-Serif" font-size="10.00">RETRIEVED / DOWNLOAD CUTOFF</text>
<text xml:space="preserve" text-anchor="middle" x="1355.12" y="-417.88" font-family="Helvetica,sans-Serif" font-size="10.00">retrieved: 50</text>
<text xml:space="preserve" text-anchor="middle" x="1355.12" y="-406.62" font-family="Helvetica,sans-Serif" font-size="10.00">full text on disk: 13</text>
<text xml:space="preserve" text-anchor="middle" x="1355.12" y="-395.38" font-family="Helvetica,sans-Serif" font-size="10.00">xml=13 pdf=0 html=0</text>
</g>
<!-- ID&#45;&gt;RET -->
<g id="edge1" class="edge">
<title>ID&#45;&gt;RET</title>
<path fill="none" stroke="black" d="M1457.4,-506.27C1437.03,-488.51 1412.86,-467.44 1393.13,-450.25"/>
<polygon fill="black" stroke="black" points="1395.67,-447.82 1385.83,-443.88 1391.07,-453.09 1395.67,-447.82"/>
</g>
<!-- ART -->
<g id="node7" class="node">
<title>ART</title>
<path fill="#f5f5f5" stroke="black" d="M1814.25,-470.75C1814.25,-470.75 1478,-470.75 1478,-470.75 1472,-470.75 1466,-464.75 1466,-458.75 1466,-458.75 1466,-373.5 1466,-373.5 1466,-367.5 1472,-361.5 1478,-361.5 1478,-361.5 1814.25,-361.5 1814.25,-361.5 1820.25,-361.5 1826.25,-367.5 1826.25,-373.5 1826.25,-373.5 1826.25,-458.75 1826.25,-458.75 1826.25,-464.75 1820.25,-470.75 1814.25,-470.75"/>
<text xml:space="preserve" text-anchor="middle" x="1646.12" y="-457.25" font-family="Helvetica,sans-Serif" font-size="10.00">Local artefacts</text>
<text xml:space="preserve" text-anchor="middle" x="1646.12" y="-446" font-family="Helvetica,sans-Serif" font-size="10.00">raw_query: &quot;climate change&quot;</text>
<text xml:space="preserve" text-anchor="middle" x="1646.12" y="-434.75" font-family="Helvetica,sans-Serif" font-size="10.00">config [missing]: pilot YAML</text>
<text xml:space="preserve" text-anchor="middle" x="1646.12" y="-423.5" font-family="Helvetica,sans-Serif" font-size="10.00">query_run [ok]: temp/queries/climate_change_2026/query_run.json</text>
<text xml:space="preserve" text-anchor="middle" x="1646.12" y="-412.25" font-family="Helvetica,sans-Serif" font-size="10.00">search_results [ok]: temp/queries/climate_change_2026/search_results.json</text>
<text xml:space="preserve" text-anchor="middle" x="1646.12" y="-401" font-family="Helvetica,sans-Serif" font-size="10.00">query_dir_fulltext [ok]: temp/queries/climate_change_2026</text>
<text xml:space="preserve" text-anchor="middle" x="1646.12" y="-389.75" font-family="Helvetica,sans-Serif" font-size="10.00">review_table [ok]: temp/queries/climate_change_2026/review/review_table.json</text>
<text xml:space="preserve" text-anchor="middle" x="1646.12" y="-378.5" font-family="Helvetica,sans-Serif" font-size="10.00">overrides [missing]: optional n_identified hitCount</text>
<text xml:space="preserve" text-anchor="middle" x="1646.12" y="-367.25" font-family="Helvetica,sans-Serif" font-size="10.00">corpus_dir [ok]: corpora/climate_change_2026</text>
</g>
<!-- ID&#45;&gt;ART -->
<g id="edge7" class="edge">
<title>ID&#45;&gt;ART</title>
<path fill="none" stroke="black" stroke-dasharray="1,5" d="M1543.14,-506.27C1553.16,-497.59 1564.1,-488.13 1574.98,-478.71"/>
<polygon fill="black" stroke="black" points="1577.26,-481.36 1582.53,-472.17 1572.68,-476.07 1577.26,-481.36"/>
</g>
<!-- DL -->
<g id="node3" class="node">
<title>DL</title>
<path fill="#ffe6e6" stroke="black" d="M1776.25,-325.5C1776.25,-325.5 12,-325.5 12,-325.5 6,-325.5 0,-319.5 0,-313.5 0,-313.5 0,-284.5 0,-284.5 0,-278.5 6,-272.5 12,-272.5 12,-272.5 1776.25,-272.5 1776.25,-272.5 1782.25,-272.5 1788.25,-278.5 1788.25,-284.5 1788.25,-284.5 1788.25,-313.5 1788.25,-313.5 1788.25,-319.5 1782.25,-325.5 1776.25,-325.5"/>
<text xml:space="preserve" text-anchor="middle" x="894.12" y="-312" font-family="Helvetica,sans-Serif" font-size="10.00">Download check</text>
<text xml:space="preserve" text-anchor="middle" x="894.12" y="-300.75" font-family="Helvetica,sans-Serif" font-size="10.00">status: incomplete</text>
<text xml:space="preserve" text-anchor="middle" x="894.12" y="-289.5" font-family="Helvetica,sans-Serif" font-size="10.00">files present 13/100 (formats [&#39;xml&#39;, &#39;pdf&#39;])</text>
<text xml:space="preserve" text-anchor="middle" x="894.12" y="-278.25" font-family="Helvetica,sans-Serif" font-size="10.00">DOWNLOAD INCOMPLETE: expected 100 files (50 papers × formats [&#39;xml&#39;, &#39;pdf&#39;]); found 13 on disk in temp/queries/climate_change_2026; missing 87 (50 papers incomplete). Examples: 10.20944/preprints202606.1525.v1 missing [&#39;xml&#39;, &#39;pdf&#39;]; 42314205 missing [&#39;xml&#39;, &#39;pdf&#39;]; PMC13256475 missing [&#39;pdf&#39;]; 42323599 missing [&#39;xml&#39;, &#39;pdf&#39;]; 42384637 missing [&#39;xml&#39;, &#39;pdf&#39;]. query_run.downloaded_count=13/50.</text>
</g>
<!-- RET&#45;&gt;DL -->
<g id="edge2" class="edge">
<title>RET&#45;&gt;DL</title>
<path fill="none" stroke="black" d="M1261.56,-391.76C1188.54,-373.52 1086.76,-348.11 1008.83,-328.65"/>
<polygon fill="black" stroke="black" points="1010.02,-325.33 999.47,-326.31 1008.32,-332.13 1010.02,-325.33"/>
</g>
<!-- EX -->
<g id="node6" class="node">
<title>EX</title>
<path fill="#fdecea" stroke="black" d="M1654.25,-153.25C1654.25,-153.25 1576,-153.25 1576,-153.25 1570,-153.25 1564,-147.25 1564,-141.25 1564,-141.25 1564,-123.5 1564,-123.5 1564,-117.5 1570,-111.5 1576,-111.5 1576,-111.5 1654.25,-111.5 1654.25,-111.5 1660.25,-111.5 1666.25,-117.5 1666.25,-123.5 1666.25,-123.5 1666.25,-141.25 1666.25,-141.25 1666.25,-147.25 1660.25,-153.25 1654.25,-153.25"/>
<text xml:space="preserve" text-anchor="middle" x="1615.12" y="-139.75" font-family="Helvetica,sans-Serif" font-size="10.00">Exclusions</text>
<text xml:space="preserve" text-anchor="middle" x="1615.12" y="-128.5" font-family="Helvetica,sans-Serif" font-size="10.00">download_failed: 87</text>
<text xml:space="preserve" text-anchor="middle" x="1615.12" y="-117.25" font-family="Helvetica,sans-Serif" font-size="10.00">pending_review: 50</text>
</g>
<!-- RET&#45;&gt;EX -->
<g id="edge5" class="edge">
<title>RET&#45;&gt;EX</title>
<path fill="none" stroke="black" stroke-dasharray="5,2" d="M1395.77,-389.21C1413.88,-378.89 1435.88,-367.95 1457.12,-361.5 1529.83,-339.43 1746.31,-381.98 1797.12,-325.5 1851.97,-264.54 1741.89,-195.2 1670.18,-158.79"/>
<polygon fill="black" stroke="black" points="1671.77,-155.67 1661.26,-154.34 1668.64,-161.94 1671.77,-155.67"/>
</g>
<!-- SCR -->
<g id="node4" class="node">
<title>SCR</title>
<path fill="#fff8e6" stroke="black" d="M1139.5,-236.5C1139.5,-236.5 1050.75,-236.5 1050.75,-236.5 1044.75,-236.5 1038.75,-230.5 1038.75,-224.5 1038.75,-224.5 1038.75,-212.5 1038.75,-212.5 1038.75,-206.5 1044.75,-200.5 1050.75,-200.5 1050.75,-200.5 1139.5,-200.5 1139.5,-200.5 1145.5,-200.5 1151.5,-206.5 1151.5,-212.5 1151.5,-212.5 1151.5,-224.5 1151.5,-224.5 1151.5,-230.5 1145.5,-236.5 1139.5,-236.5"/>
<text xml:space="preserve" text-anchor="middle" x="1095.12" y="-220.25" font-family="Helvetica,sans-Serif" font-size="10.00">MANUAL FILTERING</text>
<text xml:space="preserve" text-anchor="middle" x="1095.12" y="-209" font-family="Helvetica,sans-Serif" font-size="10.00">screened: 50</text>
</g>
<!-- DL&#45;&gt;SCR -->
<g id="edge3" class="edge">
<title>DL&#45;&gt;SCR</title>
<path fill="none" stroke="black" d="M960.5,-272.08C986.2,-262.04 1015.27,-250.69 1039.81,-241.1"/>
<polygon fill="black" stroke="black" points="1040.93,-244.42 1048.97,-237.52 1038.38,-237.9 1040.93,-244.42"/>
</g>
<!-- INC -->
<g id="node5" class="node">
<title>INC</title>
<path fill="#e8f8e8" stroke="black" d="M1132.38,-164.5C1132.38,-164.5 1057.88,-164.5 1057.88,-164.5 1051.88,-164.5 1045.88,-158.5 1045.88,-152.5 1045.88,-152.5 1045.88,-112.25 1045.88,-112.25 1045.88,-106.25 1051.88,-100.25 1057.88,-100.25 1057.88,-100.25 1132.38,-100.25 1132.38,-100.25 1138.38,-100.25 1144.38,-106.25 1144.38,-112.25 1144.38,-112.25 1144.38,-152.5 1144.38,-152.5 1144.38,-158.5 1138.38,-164.5 1132.38,-164.5"/>
<text xml:space="preserve" text-anchor="middle" x="1095.12" y="-151" font-family="Helvetica,sans-Serif" font-size="10.00">FINAL TABLE</text>
<text xml:space="preserve" text-anchor="middle" x="1095.12" y="-139.75" font-family="Helvetica,sans-Serif" font-size="10.00">include: 0</text>
<text xml:space="preserve" text-anchor="middle" x="1095.12" y="-128.5" font-family="Helvetica,sans-Serif" font-size="10.00">still review: 50</text>
<text xml:space="preserve" text-anchor="middle" x="1095.12" y="-117.25" font-family="Helvetica,sans-Serif" font-size="10.00">exclude: 0</text>
<text xml:space="preserve" text-anchor="middle" x="1095.12" y="-106" font-family="Helvetica,sans-Serif" font-size="10.00">final table rows: 50</text>
</g>
<!-- SCR&#45;&gt;INC -->
<g id="edge4" class="edge">
<title>SCR&#45;&gt;INC</title>
<path fill="none" stroke="black" d="M1095.12,-200.07C1095.12,-193.05 1095.12,-184.63 1095.12,-176.16"/>
<polygon fill="black" stroke="black" points="1098.63,-176.24 1095.13,-166.24 1091.63,-176.24 1098.63,-176.24"/>
</g>
<!-- SCR&#45;&gt;EX -->
<g id="edge6" class="edge">
<title>SCR&#45;&gt;EX</title>
<path fill="none" stroke="black" stroke-dasharray="5,2" d="M1151.76,-208.34C1249.73,-192.49 1450.09,-160.07 1552.23,-143.55"/>
<polygon fill="black" stroke="black" points="1552.78,-147.01 1562.1,-141.95 1551.67,-140.1 1552.78,-147.01"/>
</g>
<!-- PROV -->
<g id="node8" class="node">
<title>PROV</title>
<path fill="#f5f5f5" stroke="black" d="M1361.12,-64.25C1361.12,-64.25 829.12,-64.25 829.12,-64.25 823.12,-64.25 817.12,-58.25 817.12,-52.25 817.12,-52.25 817.12,-12 817.12,-12 817.12,-6 823.12,0 829.12,0 829.12,0 1361.12,0 1361.12,0 1367.12,0 1373.12,-6 1373.12,-12 1373.12,-12 1373.12,-52.25 1373.12,-52.25 1373.12,-58.25 1367.12,-64.25 1361.12,-64.25"/>
<text xml:space="preserve" text-anchor="middle" x="1095.12" y="-50.75" font-family="Helvetica,sans-Serif" font-size="10.00">Count sources</text>
<text xml:space="preserve" text-anchor="middle" x="1095.12" y="-39.5" font-family="Helvetica,sans-Serif" font-size="10.00">n_identified &lt;&#45; same as retrieved (total hitCount not recorded; set prisma_overrides.yaml n_identified or query_run.total_hits)</text>
<text xml:space="preserve" text-anchor="middle" x="1095.12" y="-28.25" font-family="Helvetica,sans-Serif" font-size="10.00">n_retrieved &lt;&#45; search_results.json length</text>
<text xml:space="preserve" text-anchor="middle" x="1095.12" y="-17" font-family="Helvetica,sans-Serif" font-size="10.00">n_with_fulltext &lt;&#45; filesystem (xml=13, pdf=0, html=0)</text>
<text xml:space="preserve" text-anchor="middle" x="1095.12" y="-5.75" font-family="Helvetica,sans-Serif" font-size="10.00">n_screened &lt;&#45; review_table.json length</text>
</g>
<!-- INC&#45;&gt;PROV -->
<g id="edge8" class="edge">
<title>INC&#45;&gt;PROV</title>
<path fill="none" stroke="black" stroke-dasharray="1,5" d="M1095.12,-100.02C1095.12,-92.31 1095.12,-83.92 1095.12,-75.78"/>
<polygon fill="black" stroke="black" points="1098.63,-76.03 1095.13,-66.03 1091.63,-76.03 1098.63,-76.03"/>
</g>
</g>
</svg>
