<?xml version="1.0" encoding="UTF-8" standalone="no"?>
<!DOCTYPE svg PUBLIC "-//W3C//DTD SVG 1.1//EN"
 "http://www.w3.org/Graphics/SVG/1.1/DTD/svg11.dtd">
<!-- Generated by graphviz version 13.1.0 (20250701.0955)
 -->
<!-- Title: prisma_flow Pages: 1 -->
<svg width="2168pt" height="590pt"
 viewBox="0.00 0.00 2168.00 590.00" xmlns="http://www.w3.org/2000/svg" xmlns:xlink="http://www.w3.org/1999/xlink">
<g id="graph0" class="graph" transform="scale(1 1) rotate(0) translate(4 586.25)">
<title>prisma_flow</title>
<polygon fill="white" stroke="none" points="-4,4 -4,-586.25 2164.25,-586.25 2164.25,4 -4,4"/>
<!-- ID -->
<g id="node1" class="node">
<title>ID</title>
<path fill="#e8f4fc" stroke="black" d="M1897.12,-582.25C1897.12,-582.25 1145.38,-582.25 1145.38,-582.25 1139.38,-582.25 1133.38,-576.25 1133.38,-570.25 1133.38,-570.25 1133.38,-518.75 1133.38,-518.75 1133.38,-512.75 1139.38,-506.75 1145.38,-506.75 1145.38,-506.75 1897.12,-506.75 1897.12,-506.75 1903.12,-506.75 1909.12,-512.75 1909.12,-518.75 1909.12,-518.75 1909.12,-570.25 1909.12,-570.25 1909.12,-576.25 1903.12,-582.25 1897.12,-582.25"/>
<text xml:space="preserve" text-anchor="middle" x="1521.25" y="-568.75" font-family="Helvetica,sans-Serif" font-size="10.00">IDENTIFICATION</text>
<text xml:space="preserve" text-anchor="middle" x="1521.25" y="-557.5" font-family="Helvetica,sans-Serif" font-size="10.00">repository: europe_pmc</text>
<text xml:space="preserve" text-anchor="middle" x="1521.25" y="-546.25" font-family="Helvetica,sans-Serif" font-size="10.00">raw query: (&quot;marine heatwave&quot; OR &quot;ocean heat wave&quot; OR &quot;ocean heatwave&quot;) AND (&quot;ocean current&quot; OR &quot;ocean circulation&quot; OR &quot;Gulf Stream&quot; OR &quot;AMOC&quot;) AND (HAS_FT:Y)</text>
<text xml:space="preserve" text-anchor="middle" x="1521.25" y="-535" font-family="Helvetica,sans-Serif" font-size="10.00">limit: 50</text>
<text xml:space="preserve" text-anchor="middle" x="1521.25" y="-523.75" font-family="Helvetica,sans-Serif" font-size="10.00">records identified: 50</text>
<text xml:space="preserve" text-anchor="middle" x="1521.25" y="-512.5" font-family="Helvetica,sans-Serif" font-size="10.00">NOT database hitCount (= retrieved)</text>
</g>
<!-- RET -->
<g id="node2" class="node">
<title>RET</title>
<path fill="#eef9ee" stroke="black" d="M1352.38,-442.62C1352.38,-442.62 1190.12,-442.62 1190.12,-442.62 1184.12,-442.62 1178.12,-436.62 1178.12,-430.62 1178.12,-430.62 1178.12,-401.62 1178.12,-401.62 1178.12,-395.62 1184.12,-389.62 1190.12,-389.62 1190.12,-389.62 1352.38,-389.62 1352.38,-389.62 1358.38,-389.62 1364.38,-395.62 1364.38,-401.62 1364.38,-401.62 1364.38,-430.62 1364.38,-430.62 1364.38,-436.62 1358.38,-442.62 1352.38,-442.62"/>
<text xml:space="preserve" text-anchor="middle" x="1271.25" y="-429.12" font-family="Helvetica,sans-Serif" font-size="10.00">RETRIEVED / DOWNLOAD CUTOFF</text>
<text xml:space="preserve" text-anchor="middle" x="1271.25" y="-417.88" font-family="Helvetica,sans-Serif" font-size="10.00">retrieved: 50</text>
<text xml:space="preserve" text-anchor="middle" x="1271.25" y="-406.62" font-family="Helvetica,sans-Serif" font-size="10.00">full text on disk: 49</text>
<text xml:space="preserve" text-anchor="middle" x="1271.25" y="-395.38" font-family="Helvetica,sans-Serif" font-size="10.00">xml=49 pdf=0 html=49</text>
</g>
<!-- ID&#45;&gt;RET -->
<g id="edge1" class="edge">
<title>ID&#45;&gt;RET</title>
<path fill="none" stroke="black" d="M1444.62,-506.32C1421.61,-495.03 1396.35,-482.5 1373.25,-470.75 1359.19,-463.6 1344.11,-455.76 1329.98,-448.35"/>
<polygon fill="black" stroke="black" points="1331.7,-445.3 1321.22,-443.74 1328.44,-451.49 1331.7,-445.3"/>
</g>
<!-- ART -->
<g id="node7" class="node">
<title>ART</title>
<path fill="#f5f5f5" stroke="black" d="M2148.25,-470.75C2148.25,-470.75 1394.25,-470.75 1394.25,-470.75 1388.25,-470.75 1382.25,-464.75 1382.25,-458.75 1382.25,-458.75 1382.25,-373.5 1382.25,-373.5 1382.25,-367.5 1388.25,-361.5 1394.25,-361.5 1394.25,-361.5 2148.25,-361.5 2148.25,-361.5 2154.25,-361.5 2160.25,-367.5 2160.25,-373.5 2160.25,-373.5 2160.25,-458.75 2160.25,-458.75 2160.25,-464.75 2154.25,-470.75 2148.25,-470.75"/>
<text xml:space="preserve" text-anchor="middle" x="1771.25" y="-457.25" font-family="Helvetica,sans-Serif" font-size="10.00">Local artefacts</text>
<text xml:space="preserve" text-anchor="middle" x="1771.25" y="-446" font-family="Helvetica,sans-Serif" font-size="10.00">raw_query: (&quot;marine heatwave&quot; OR &quot;ocean heat wave&quot; OR &quot;ocean heatwave&quot;) AND (&quot;ocean current&quot; OR &quot;ocean circulation&quot; OR &quot;Gulf Stream&quot; OR &quot;AMOC&quot;) AND (HAS_FT:Y)</text>
<text xml:space="preserve" text-anchor="middle" x="1771.25" y="-434.75" font-family="Helvetica,sans-Serif" font-size="10.00">config [ok]: config/ocean_heatwaves_2026.yaml</text>
<text xml:space="preserve" text-anchor="middle" x="1771.25" y="-423.5" font-family="Helvetica,sans-Serif" font-size="10.00">query_run [ok]: temp/queries/ocean_heatwaves_2026/query_run.json</text>
<text xml:space="preserve" text-anchor="middle" x="1771.25" y="-412.25" font-family="Helvetica,sans-Serif" font-size="10.00">search_results [ok]: temp/queries/ocean_heatwaves_2026/search_results.json</text>
<text xml:space="preserve" text-anchor="middle" x="1771.25" y="-401" font-family="Helvetica,sans-Serif" font-size="10.00">query_dir_fulltext [ok]: temp/queries/ocean_heatwaves_2026</text>
<text xml:space="preserve" text-anchor="middle" x="1771.25" y="-389.75" font-family="Helvetica,sans-Serif" font-size="10.00">review_table [ok]: temp/queries/ocean_heatwaves_2026/review/review_table.json</text>
<text xml:space="preserve" text-anchor="middle" x="1771.25" y="-378.5" font-family="Helvetica,sans-Serif" font-size="10.00">overrides [missing]: optional n_identified hitCount</text>
<text xml:space="preserve" text-anchor="middle" x="1771.25" y="-367.25" font-family="Helvetica,sans-Serif" font-size="10.00">corpus_dir [ok]: corpora/ocean_heatwaves_2026</text>
</g>
<!-- ID&#45;&gt;ART -->
<g id="edge7" class="edge">
<title>ID&#45;&gt;ART</title>
<path fill="none" stroke="black" stroke-dasharray="1,5" d="M1594.91,-506.27C1613.51,-496.86 1633.95,-486.53 1654.12,-476.33"/>
<polygon fill="black" stroke="black" points="1655.61,-479.5 1662.96,-471.87 1652.46,-473.25 1655.61,-479.5"/>
</g>
<!-- DL -->
<g id="node3" class="node">
<title>DL</title>
<path fill="#ffe6e6" stroke="black" d="M1664.5,-325.5C1664.5,-325.5 12,-325.5 12,-325.5 6,-325.5 0,-319.5 0,-313.5 0,-313.5 0,-284.5 0,-284.5 0,-278.5 6,-272.5 12,-272.5 12,-272.5 1664.5,-272.5 1664.5,-272.5 1670.5,-272.5 1676.5,-278.5 1676.5,-284.5 1676.5,-284.5 1676.5,-313.5 1676.5,-313.5 1676.5,-319.5 1670.5,-325.5 1664.5,-325.5"/>
<text xml:space="preserve" text-anchor="middle" x="838.25" y="-312" font-family="Helvetica,sans-Serif" font-size="10.00">Download check</text>
<text xml:space="preserve" text-anchor="middle" x="838.25" y="-300.75" font-family="Helvetica,sans-Serif" font-size="10.00">status: incomplete</text>
<text xml:space="preserve" text-anchor="middle" x="838.25" y="-289.5" font-family="Helvetica,sans-Serif" font-size="10.00">files present 49/100 (formats [&#39;xml&#39;, &#39;pdf&#39;])</text>
<text xml:space="preserve" text-anchor="middle" x="838.25" y="-278.25" font-family="Helvetica,sans-Serif" font-size="10.00">DOWNLOAD INCOMPLETE: expected 100 files (50 papers × formats [&#39;xml&#39;, &#39;pdf&#39;]); found 49 on disk in temp/queries/ocean_heatwaves_2026; missing 51 (50 papers incomplete). Examples: PMC13031658 missing [&#39;pdf&#39;]; PMC13121742 missing [&#39;pdf&#39;]; PMC11882673 missing [&#39;pdf&#39;]; PMC12606263 missing [&#39;pdf&#39;]; PMC12176657 missing [&#39;pdf&#39;]. query_run.downloaded_count=49/50.</text>
</g>
<!-- RET&#45;&gt;DL -->
<g id="edge2" class="edge">
<title>RET&#45;&gt;DL</title>
<path fill="none" stroke="black" d="M1177.83,-390.29C1109.96,-372.24 1017.93,-347.77 946.79,-328.86"/>
<polygon fill="black" stroke="black" points="948.04,-325.57 937.47,-326.38 946.24,-332.33 948.04,-325.57"/>
</g>
<!-- EX -->
<g id="node6" class="node">
<title>EX</title>
<path fill="#fdecea" stroke="black" d="M1556.38,-153.25C1556.38,-153.25 1478.12,-153.25 1478.12,-153.25 1472.12,-153.25 1466.12,-147.25 1466.12,-141.25 1466.12,-141.25 1466.12,-123.5 1466.12,-123.5 1466.12,-117.5 1472.12,-111.5 1478.12,-111.5 1478.12,-111.5 1556.38,-111.5 1556.38,-111.5 1562.38,-111.5 1568.38,-117.5 1568.38,-123.5 1568.38,-123.5 1568.38,-141.25 1568.38,-141.25 1568.38,-147.25 1562.38,-153.25 1556.38,-153.25"/>
<text xml:space="preserve" text-anchor="middle" x="1517.25" y="-139.75" font-family="Helvetica,sans-Serif" font-size="10.00">Exclusions</text>
<text xml:space="preserve" text-anchor="middle" x="1517.25" y="-128.5" font-family="Helvetica,sans-Serif" font-size="10.00">download_failed: 51</text>
<text xml:space="preserve" text-anchor="middle" x="1517.25" y="-117.25" font-family="Helvetica,sans-Serif" font-size="10.00">pending_review: 50</text>
</g>
<!-- RET&#45;&gt;EX -->
<g id="edge5" class="edge">
<title>RET&#45;&gt;EX</title>
<path fill="none" stroke="black" stroke-dasharray="5,2" d="M1311.93,-389.31C1330.04,-379 1352.03,-368.05 1373.25,-361.5 1439.94,-340.91 1638.81,-377.6 1685.25,-325.5 1737.97,-266.35 1635.07,-196.09 1568.23,-159.1"/>
<polygon fill="black" stroke="black" points="1570.03,-156.1 1559.57,-154.4 1566.69,-162.25 1570.03,-156.1"/>
</g>
<!-- SCR -->
<g id="node4" class="node">
<title>SCR</title>
<path fill="#fff8e6" stroke="black" d="M1069.62,-236.5C1069.62,-236.5 980.88,-236.5 980.88,-236.5 974.88,-236.5 968.88,-230.5 968.88,-224.5 968.88,-224.5 968.88,-212.5 968.88,-212.5 968.88,-206.5 974.88,-200.5 980.88,-200.5 980.88,-200.5 1069.62,-200.5 1069.62,-200.5 1075.62,-200.5 1081.62,-206.5 1081.62,-212.5 1081.62,-212.5 1081.62,-224.5 1081.62,-224.5 1081.62,-230.5 1075.62,-236.5 1069.62,-236.5"/>
<text xml:space="preserve" text-anchor="middle" x="1025.25" y="-220.25" font-family="Helvetica,sans-Serif" font-size="10.00">MANUAL FILTERING</text>
<text xml:space="preserve" text-anchor="middle" x="1025.25" y="-209" font-family="Helvetica,sans-Serif" font-size="10.00">screened: 50</text>
</g>
<!-- DL&#45;&gt;SCR -->
<g id="edge3" class="edge">
<title>DL&#45;&gt;SCR</title>
<path fill="none" stroke="black" d="M900,-272.08C923.69,-262.13 950.48,-250.89 973.17,-241.36"/>
<polygon fill="black" stroke="black" points="974.36,-244.66 982.23,-237.56 971.65,-238.2 974.36,-244.66"/>
</g>
<!-- INC -->
<g id="node5" class="node">
<title>INC</title>
<path fill="#e8f8e8" stroke="black" d="M1062.5,-164.5C1062.5,-164.5 988,-164.5 988,-164.5 982,-164.5 976,-158.5 976,-152.5 976,-152.5 976,-112.25 976,-112.25 976,-106.25 982,-100.25 988,-100.25 988,-100.25 1062.5,-100.25 1062.5,-100.25 1068.5,-100.25 1074.5,-106.25 1074.5,-112.25 1074.5,-112.25 1074.5,-152.5 1074.5,-152.5 1074.5,-158.5 1068.5,-164.5 1062.5,-164.5"/>
<text xml:space="preserve" text-anchor="middle" x="1025.25" y="-151" font-family="Helvetica,sans-Serif" font-size="10.00">FINAL TABLE</text>
<text xml:space="preserve" text-anchor="middle" x="1025.25" y="-139.75" font-family="Helvetica,sans-Serif" font-size="10.00">include: 0</text>
<text xml:space="preserve" text-anchor="middle" x="1025.25" y="-128.5" font-family="Helvetica,sans-Serif" font-size="10.00">still review: 50</text>
<text xml:space="preserve" text-anchor="middle" x="1025.25" y="-117.25" font-family="Helvetica,sans-Serif" font-size="10.00">exclude: 0</text>
<text xml:space="preserve" text-anchor="middle" x="1025.25" y="-106" font-family="Helvetica,sans-Serif" font-size="10.00">final table rows: 50</text>
</g>
<!-- SCR&#45;&gt;INC -->
<g id="edge4" class="edge">
<title>SCR&#45;&gt;INC</title>
<path fill="none" stroke="black" d="M1025.25,-200.07C1025.25,-193.05 1025.25,-184.63 1025.25,-176.16"/>
<polygon fill="black" stroke="black" points="1028.75,-176.24 1025.25,-166.24 1021.75,-176.24 1028.75,-176.24"/>
</g>
<!-- SCR&#45;&gt;EX -->
<g id="edge6" class="edge">
<title>SCR&#45;&gt;EX</title>
<path fill="none" stroke="black" stroke-dasharray="5,2" d="M1081.69,-207.85C1174.34,-192.01 1358.03,-160.6 1454.59,-144.09"/>
<polygon fill="black" stroke="black" points="1455.16,-147.54 1464.43,-142.41 1453.98,-140.64 1455.16,-147.54"/>
</g>
<!-- PROV -->
<g id="node8" class="node">
<title>PROV</title>
<path fill="#f5f5f5" stroke="black" d="M1291.25,-64.25C1291.25,-64.25 759.25,-64.25 759.25,-64.25 753.25,-64.25 747.25,-58.25 747.25,-52.25 747.25,-52.25 747.25,-12 747.25,-12 747.25,-6 753.25,0 759.25,0 759.25,0 1291.25,0 1291.25,0 1297.25,0 1303.25,-6 1303.25,-12 1303.25,-12 1303.25,-52.25 1303.25,-52.25 1303.25,-58.25 1297.25,-64.25 1291.25,-64.25"/>
<text xml:space="preserve" text-anchor="middle" x="1025.25" y="-50.75" font-family="Helvetica,sans-Serif" font-size="10.00">Count sources</text>
<text xml:space="preserve" text-anchor="middle" x="1025.25" y="-39.5" font-family="Helvetica,sans-Serif" font-size="10.00">n_identified &lt;&#45; same as retrieved (total hitCount not recorded; set prisma_overrides.yaml n_identified or query_run.total_hits)</text>
<text xml:space="preserve" text-anchor="middle" x="1025.25" y="-28.25" font-family="Helvetica,sans-Serif" font-size="10.00">n_retrieved &lt;&#45; search_results.json length</text>
<text xml:space="preserve" text-anchor="middle" x="1025.25" y="-17" font-family="Helvetica,sans-Serif" font-size="10.00">n_with_fulltext &lt;&#45; filesystem (xml=49, pdf=0, html=49)</text>
<text xml:space="preserve" text-anchor="middle" x="1025.25" y="-5.75" font-family="Helvetica,sans-Serif" font-size="10.00">n_screened &lt;&#45; review_table.json length</text>
</g>
<!-- INC&#45;&gt;PROV -->
<g id="edge8" class="edge">
<title>INC&#45;&gt;PROV</title>
<path fill="none" stroke="black" stroke-dasharray="1,5" d="M1025.25,-100.02C1025.25,-92.31 1025.25,-83.92 1025.25,-75.78"/>
<polygon fill="black" stroke="black" points="1028.75,-76.03 1025.25,-66.03 1021.75,-76.03 1028.75,-76.03"/>
</g>
</g>
</svg>
