<?xml version="1.0" encoding="UTF-8" standalone="no"?>
<!DOCTYPE svg PUBLIC "-//W3C//DTD SVG 1.1//EN"
 "http://www.w3.org/Graphics/SVG/1.1/DTD/svg11.dtd">
<!-- Generated by graphviz version 13.1.0 (20250701.0955)
 -->
<!-- Title: architecture Pages: 1 -->
<svg width="484pt" height="226pt"
 viewBox="0.00 0.00 484.00 226.00" xmlns="http://www.w3.org/2000/svg" xmlns:xlink="http://www.w3.org/1999/xlink">
<g id="graph0" class="graph" transform="scale(1 1) rotate(0) translate(4 222)">
<title>architecture</title>
<polygon fill="white" stroke="none" points="-4,4 -4,-222 479.5,-222 479.5,4 -4,4"/>
<!-- CLI -->
<g id="node1" class="node">
<title>CLI</title>
<path fill="none" stroke="black" d="M43.75,-129C43.75,-129 12,-129 12,-129 6,-129 0,-123 0,-117 0,-117 0,-100 0,-100 0,-94 6,-88 12,-88 12,-88 43.75,-88 43.75,-88 49.75,-88 55.75,-94 55.75,-100 55.75,-100 55.75,-117 55.75,-117 55.75,-123 49.75,-129 43.75,-129"/>
<text xml:space="preserve" text-anchor="middle" x="27.88" y="-111.7" font-family="Times,serif" font-size="14.00">CLI</text>
<text xml:space="preserve" text-anchor="middle" x="27.88" y="-95.2" font-family="Times,serif" font-size="14.00">(cli.py)</text>
</g>
<!-- CorpusManager -->
<g id="node2" class="node">
<title>CorpusManager</title>
<path fill="none" stroke="black" d="M243.12,-159C243.12,-159 108.62,-159 108.62,-159 102.62,-159 96.62,-153 96.62,-147 96.62,-147 96.62,-130 96.62,-130 96.62,-124 102.62,-118 108.62,-118 108.62,-118 243.12,-118 243.12,-118 249.12,-118 255.12,-124 255.12,-130 255.12,-130 255.12,-147 255.12,-147 255.12,-153 249.12,-159 243.12,-159"/>
<text xml:space="preserve" text-anchor="middle" x="175.88" y="-141.7" font-family="Times,serif" font-size="14.00">CorpusManager</text>
<text xml:space="preserve" text-anchor="middle" x="175.88" y="-125.2" font-family="Times,serif" font-size="14.00">(core/corpus_manager.py)</text>
</g>
<!-- CLI&#45;&gt;CorpusManager -->
<g id="edge1" class="edge">
<title>CLI&#45;&gt;CorpusManager</title>
<path fill="none" stroke="black" d="M55.99,-114.07C64.62,-115.85 74.69,-117.91 85.25,-120.08"/>
<polygon fill="black" stroke="black" points="84.41,-123.48 94.91,-122.07 85.82,-116.63 84.41,-123.48"/>
</g>
<!-- RepositoryFactory -->
<g id="node4" class="node">
<title>RepositoryFactory</title>
<path fill="none" stroke="black" d="M248,-100C248,-100 103.75,-100 103.75,-100 97.75,-100 91.75,-94 91.75,-88 91.75,-88 91.75,-71 91.75,-71 91.75,-65 97.75,-59 103.75,-59 103.75,-59 248,-59 248,-59 254,-59 260,-65 260,-71 260,-71 260,-88 260,-88 260,-94 254,-100 248,-100"/>
<text xml:space="preserve" text-anchor="middle" x="175.88" y="-82.7" font-family="Times,serif" font-size="14.00">RepositoryFactory</text>
<text xml:space="preserve" text-anchor="middle" x="175.88" y="-66.2" font-family="Times,serif" font-size="14.00">(core/repository_factory.py)</text>
</g>
<!-- CLI&#45;&gt;RepositoryFactory -->
<g id="edge2" class="edge">
<title>CLI&#45;&gt;RepositoryFactory</title>
<path fill="none" stroke="black" d="M55.99,-103.11C63.24,-101.67 71.5,-100.03 80.22,-98.3"/>
<polygon fill="black" stroke="black" points="80.85,-101.74 89.98,-96.36 79.48,-94.88 80.85,-101.74"/>
</g>
<!-- BagitManager -->
<g id="node3" class="node">
<title>BagitManager</title>
<path fill="none" stroke="black" d="M456.38,-218C456.38,-218 315.12,-218 315.12,-218 309.12,-218 303.12,-212 303.12,-206 303.12,-206 303.12,-189 303.12,-189 303.12,-183 309.12,-177 315.12,-177 315.12,-177 456.38,-177 456.38,-177 462.38,-177 468.38,-183 468.38,-189 468.38,-189 468.38,-206 468.38,-206 468.38,-212 462.38,-218 456.38,-218"/>
<text xml:space="preserve" text-anchor="middle" x="385.75" y="-200.7" font-family="Times,serif" font-size="14.00">BagitManager</text>
<text xml:space="preserve" text-anchor="middle" x="385.75" y="-184.2" font-family="Times,serif" font-size="14.00">(storage/bagit_manager.py)</text>
</g>
<!-- CorpusManager&#45;&gt;BagitManager -->
<g id="edge3" class="edge">
<title>CorpusManager&#45;&gt;BagitManager</title>
<path fill="none" stroke="black" d="M250.75,-159.47C266.74,-164 283.76,-168.84 300.12,-173.48"/>
<polygon fill="black" stroke="black" points="298.73,-176.72 309.31,-176.09 300.64,-169.99 298.73,-176.72"/>
</g>
<!-- MetadataProcessor -->
<g id="node5" class="node">
<title>MetadataProcessor</title>
<path fill="none" stroke="black" d="M463.5,-159C463.5,-159 308,-159 308,-159 302,-159 296,-153 296,-147 296,-147 296,-130 296,-130 296,-124 302,-118 308,-118 308,-118 463.5,-118 463.5,-118 469.5,-118 475.5,-124 475.5,-130 475.5,-130 475.5,-147 475.5,-147 475.5,-153 469.5,-159 463.5,-159"/>
<text xml:space="preserve" text-anchor="middle" x="385.75" y="-141.7" font-family="Times,serif" font-size="14.00">MetadataProcessor</text>
<text xml:space="preserve" text-anchor="middle" x="385.75" y="-125.2" font-family="Times,serif" font-size="14.00">(tools/metadata_processor.py)</text>
</g>
<!-- CorpusManager&#45;&gt;MetadataProcessor -->
<g id="edge4" class="edge">
<title>CorpusManager&#45;&gt;MetadataProcessor</title>
<path fill="none" stroke="black" d="M255.46,-138.5C264.88,-138.5 274.6,-138.5 284.28,-138.5"/>
<polygon fill="black" stroke="black" points="284.08,-142 294.08,-138.5 284.08,-135 284.08,-142"/>
</g>
<!-- EuropePMC -->
<g id="node6" class="node">
<title>EuropePMC</title>
<path fill="none" stroke="black" d="M462,-100C462,-100 309.5,-100 309.5,-100 303.5,-100 297.5,-94 297.5,-88 297.5,-88 297.5,-71 297.5,-71 297.5,-65 303.5,-59 309.5,-59 309.5,-59 462,-59 462,-59 468,-59 474,-65 474,-71 474,-71 474,-88 474,-88 474,-94 468,-100 462,-100"/>
<text xml:space="preserve" text-anchor="middle" x="385.75" y="-82.7" font-family="Times,serif" font-size="14.00">EuropePMCRepository</text>
<text xml:space="preserve" text-anchor="middle" x="385.75" y="-66.2" font-family="Times,serif" font-size="14.00">(repositories/europe_pmc.py)</text>
</g>
<!-- RepositoryFactory&#45;&gt;EuropePMC -->
<g id="edge5" class="edge">
<title>RepositoryFactory&#45;&gt;EuropePMC</title>
<path fill="none" stroke="black" d="M260.23,-79.5C268.71,-79.5 277.38,-79.5 286.01,-79.5"/>
<polygon fill="black" stroke="black" points="285.78,-83 295.78,-79.5 285.78,-76 285.78,-83"/>
</g>
<!-- Arxiv -->
<g id="node7" class="node">
<title>Arxiv</title>
<path fill="none" stroke="black" d="M441.75,-41C441.75,-41 329.75,-41 329.75,-41 323.75,-41 317.75,-35 317.75,-29 317.75,-29 317.75,-12 317.75,-12 317.75,-6 323.75,0 329.75,0 329.75,0 441.75,0 441.75,0 447.75,0 453.75,-6 453.75,-12 453.75,-12 453.75,-29 453.75,-29 453.75,-35 447.75,-41 441.75,-41"/>
<text xml:space="preserve" text-anchor="middle" x="385.75" y="-23.7" font-family="Times,serif" font-size="14.00">ArxivRepository</text>
<text xml:space="preserve" text-anchor="middle" x="385.75" y="-7.2" font-family="Times,serif" font-size="14.00">(repositories/arxiv.py)</text>
</g>
<!-- RepositoryFactory&#45;&gt;Arxiv -->
<g id="edge6" class="edge">
<title>RepositoryFactory&#45;&gt;Arxiv</title>
<path fill="none" stroke="black" d="M250.75,-58.53C268.81,-53.41 288.19,-47.9 306.45,-42.72"/>
<polygon fill="black" stroke="black" points="307.23,-46.14 315.9,-40.04 305.32,-39.41 307.23,-46.14"/>
</g>
</g>
</svg>
