<?xml version="1.0" encoding="UTF-8" standalone="no"?>
<!DOCTYPE svg PUBLIC "-//W3C//DTD SVG 1.1//EN"
 "http://www.w3.org/Graphics/SVG/1.1/DTD/svg11.dtd">
<!-- Generated by graphviz version 13.1.0 (20250701.0955)
 -->
<!-- Title: cli_workflow Pages: 1 -->
<svg width="281pt" height="342pt"
 viewBox="0.00 0.00 281.00 342.00" xmlns="http://www.w3.org/2000/svg" xmlns:xlink="http://www.w3.org/1999/xlink">
<g id="graph0" class="graph" transform="scale(1 1) rotate(0) translate(4 338)">
<title>cli_workflow</title>
<polygon fill="white" stroke="none" points="-4,4 -4,-338 276.75,-338 276.75,4 -4,4"/>
<!-- user -->
<g id="node1" class="node">
<title>user</title>
<path fill="none" stroke="black" d="M158.88,-334C158.88,-334 128.88,-334 128.88,-334 122.88,-334 116.88,-328 116.88,-322 116.88,-322 116.88,-310 116.88,-310 116.88,-304 122.88,-298 128.88,-298 128.88,-298 158.88,-298 158.88,-298 164.88,-298 170.88,-304 170.88,-310 170.88,-310 170.88,-322 170.88,-322 170.88,-328 164.88,-334 158.88,-334"/>
<text xml:space="preserve" text-anchor="middle" x="143.88" y="-310.95" font-family="Times,serif" font-size="14.00">User</text>
</g>
<!-- cli -->
<g id="node2" class="node">
<title>cli</title>
<path fill="none" stroke="black" d="M190.12,-262C190.12,-262 97.62,-262 97.62,-262 91.62,-262 85.62,-256 85.62,-250 85.62,-250 85.62,-233 85.62,-233 85.62,-227 91.62,-221 97.62,-221 97.62,-221 190.12,-221 190.12,-221 196.12,-221 202.12,-227 202.12,-233 202.12,-233 202.12,-250 202.12,-250 202.12,-256 196.12,-262 190.12,-262"/>
<text xml:space="preserve" text-anchor="middle" x="143.88" y="-244.7" font-family="Times,serif" font-size="14.00">CLI</text>
<text xml:space="preserve" text-anchor="middle" x="143.88" y="-228.2" font-family="Times,serif" font-size="14.00">(semantic_corpus)</text>
</g>
<!-- user&#45;&gt;cli -->
<g id="edge1" class="edge">
<title>user&#45;&gt;cli</title>
<path fill="none" stroke="black" d="M143.88,-297.82C143.88,-290.59 143.88,-281.95 143.88,-273.66"/>
<polygon fill="black" stroke="black" points="147.38,-273.89 143.88,-263.89 140.38,-273.89 147.38,-273.89"/>
</g>
<!-- create -->
<g id="node3" class="node">
<title>create</title>
<path fill="none" stroke="black" d="M76.75,-185C76.75,-185 27,-185 27,-185 21,-185 15,-179 15,-173 15,-173 15,-156 15,-156 15,-150 21,-144 27,-144 27,-144 76.75,-144 76.75,-144 82.75,-144 88.75,-150 88.75,-156 88.75,-156 88.75,-173 88.75,-173 88.75,-179 82.75,-185 76.75,-185"/>
<text xml:space="preserve" text-anchor="middle" x="51.88" y="-167.7" font-family="Times,serif" font-size="14.00">create</text>
<text xml:space="preserve" text-anchor="middle" x="51.88" y="-151.2" font-family="Times,serif" font-size="14.00">Command</text>
</g>
<!-- cli&#45;&gt;create -->
<g id="edge2" class="edge">
<title>cli&#45;&gt;create</title>
<path fill="none" stroke="black" d="M119.7,-220.79C109.12,-212.16 96.52,-201.9 85.08,-192.57"/>
<polygon fill="black" stroke="black" points="87.34,-189.9 77.38,-186.29 82.92,-195.32 87.34,-189.9"/>
</g>
<!-- search -->
<g id="node4" class="node">
<title>search</title>
<path fill="none" stroke="black" d="M168.75,-185C168.75,-185 119,-185 119,-185 113,-185 107,-179 107,-173 107,-173 107,-156 107,-156 107,-150 113,-144 119,-144 119,-144 168.75,-144 168.75,-144 174.75,-144 180.75,-150 180.75,-156 180.75,-156 180.75,-173 180.75,-173 180.75,-179 174.75,-185 168.75,-185"/>
<text xml:space="preserve" text-anchor="middle" x="143.88" y="-167.7" font-family="Times,serif" font-size="14.00">search</text>
<text xml:space="preserve" text-anchor="middle" x="143.88" y="-151.2" font-family="Times,serif" font-size="14.00">Command</text>
</g>
<!-- cli&#45;&gt;search -->
<g id="edge3" class="edge">
<title>cli&#45;&gt;search</title>
<path fill="none" stroke="black" d="M143.88,-220.79C143.88,-213.45 143.88,-204.91 143.88,-196.78"/>
<polygon fill="black" stroke="black" points="147.38,-196.85 143.88,-186.85 140.38,-196.85 147.38,-196.85"/>
</g>
<!-- download -->
<g id="node5" class="node">
<title>download</title>
<path fill="none" stroke="black" d="M260.75,-185C260.75,-185 211,-185 211,-185 205,-185 199,-179 199,-173 199,-173 199,-156 199,-156 199,-150 205,-144 211,-144 211,-144 260.75,-144 260.75,-144 266.75,-144 272.75,-150 272.75,-156 272.75,-156 272.75,-173 272.75,-173 272.75,-179 266.75,-185 260.75,-185"/>
<text xml:space="preserve" text-anchor="middle" x="235.88" y="-167.7" font-family="Times,serif" font-size="14.00">download</text>
<text xml:space="preserve" text-anchor="middle" x="235.88" y="-151.2" font-family="Times,serif" font-size="14.00">Command</text>
</g>
<!-- cli&#45;&gt;download -->
<g id="edge4" class="edge">
<title>cli&#45;&gt;download</title>
<path fill="none" stroke="black" d="M168.05,-220.79C178.63,-212.16 191.23,-201.9 202.67,-192.57"/>
<polygon fill="black" stroke="black" points="204.83,-195.32 210.37,-186.29 200.41,-189.9 204.83,-195.32"/>
</g>
<!-- corpus -->
<g id="node6" class="node">
<title>corpus</title>
<path fill="none" stroke="black" d="M91.75,-108C91.75,-108 12,-108 12,-108 6,-108 0,-102 0,-96 0,-96 0,-84 0,-84 0,-78 6,-72 12,-72 12,-72 91.75,-72 91.75,-72 97.75,-72 103.75,-78 103.75,-84 103.75,-84 103.75,-96 103.75,-96 103.75,-102 97.75,-108 91.75,-108"/>
<text xml:space="preserve" text-anchor="middle" x="51.88" y="-84.95" font-family="Times,serif" font-size="14.00">CorpusManager</text>
</g>
<!-- create&#45;&gt;corpus -->
<g id="edge5" class="edge">
<title>create&#45;&gt;corpus</title>
<path fill="none" stroke="black" d="M51.88,-143.69C51.88,-136.25 51.88,-127.64 51.88,-119.57"/>
<polygon fill="black" stroke="black" points="55.38,-119.83 51.88,-109.83 48.38,-119.83 55.38,-119.83"/>
</g>
<!-- repo -->
<g id="node7" class="node">
<title>repo</title>
<path fill="none" stroke="black" d="M185.5,-108C185.5,-108 134.25,-108 134.25,-108 128.25,-108 122.25,-102 122.25,-96 122.25,-96 122.25,-84 122.25,-84 122.25,-78 128.25,-72 134.25,-72 134.25,-72 185.5,-72 185.5,-72 191.5,-72 197.5,-78 197.5,-84 197.5,-84 197.5,-96 197.5,-96 197.5,-102 191.5,-108 185.5,-108"/>
<text xml:space="preserve" text-anchor="middle" x="159.88" y="-84.95" font-family="Times,serif" font-size="14.00">Repository</text>
</g>
<!-- search&#45;&gt;repo -->
<g id="edge6" class="edge">
<title>search&#45;&gt;repo</title>
<path fill="none" stroke="black" d="M148.25,-143.69C149.91,-136.17 151.83,-127.44 153.63,-119.29"/>
<polygon fill="black" stroke="black" points="156.99,-120.32 155.73,-109.8 150.15,-118.81 156.99,-120.32"/>
</g>
<!-- download&#45;&gt;repo -->
<g id="edge7" class="edge">
<title>download&#45;&gt;repo</title>
<path fill="none" stroke="black" d="M215.11,-143.69C206.22,-135.21 195.75,-125.22 186.32,-116.23"/>
<polygon fill="black" stroke="black" points="188.78,-113.73 179.13,-109.36 183.95,-118.8 188.78,-113.73"/>
</g>
<!-- files -->
<g id="node8" class="node">
<title>files</title>
<path fill="none" stroke="black" d="M131.5,-36C131.5,-36 80.25,-36 80.25,-36 74.25,-36 68.25,-30 68.25,-24 68.25,-24 68.25,-12 68.25,-12 68.25,-6 74.25,0 80.25,0 80.25,0 131.5,0 131.5,0 137.5,0 143.5,-6 143.5,-12 143.5,-12 143.5,-24 143.5,-24 143.5,-30 137.5,-36 131.5,-36"/>
<text xml:space="preserve" text-anchor="middle" x="105.88" y="-12.95" font-family="Times,serif" font-size="14.00">Filesystem</text>
</g>
<!-- corpus&#45;&gt;files -->
<g id="edge8" class="edge">
<title>corpus&#45;&gt;files</title>
<path fill="none" stroke="black" d="M65.22,-71.7C71.44,-63.64 78.96,-53.89 85.83,-44.98"/>
<polygon fill="black" stroke="black" points="88.42,-47.36 91.76,-37.3 82.88,-43.08 88.42,-47.36"/>
</g>
<!-- repo&#45;&gt;files -->
<g id="edge9" class="edge">
<title>repo&#45;&gt;files</title>
<path fill="none" stroke="black" d="M146.53,-71.7C140.31,-63.64 132.79,-53.89 125.92,-44.98"/>
<polygon fill="black" stroke="black" points="128.87,-43.08 119.99,-37.3 123.33,-47.36 128.87,-43.08"/>
</g>
</g>
</svg>
