<?xml version="1.0" encoding="UTF-8" standalone="no"?>
<!DOCTYPE svg PUBLIC "-//W3C//DTD SVG 1.1//EN"
 "http://www.w3.org/Graphics/SVG/1.1/DTD/svg11.dtd">
<!-- Generated by graphviz version 13.1.0 (20250701.0955)
 -->
<!-- Title: corpus_structure Pages: 1 -->
<svg width="740pt" height="269pt"
 viewBox="0.00 0.00 740.00 269.00" xmlns="http://www.w3.org/2000/svg" xmlns:xlink="http://www.w3.org/1999/xlink">
<g id="graph0" class="graph" transform="scale(1 1) rotate(0) translate(4 265)">
<title>corpus_structure</title>
<polygon fill="white" stroke="none" points="-4,4 -4,-265 735.5,-265 735.5,4 -4,4"/>
<!-- corpus -->
<g id="node1" class="node">
<title>corpus</title>
<path fill="none" stroke="black" d="M438.5,-261C438.5,-261 356.5,-261 356.5,-261 350.5,-261 344.5,-255 344.5,-249 344.5,-249 344.5,-232 344.5,-232 344.5,-226 350.5,-220 356.5,-220 356.5,-220 438.5,-220 438.5,-220 444.5,-220 450.5,-226 450.5,-232 450.5,-232 450.5,-249 450.5,-249 450.5,-255 444.5,-261 438.5,-261"/>
<text xml:space="preserve" text-anchor="middle" x="397.5" y="-243.7" font-family="Times,serif" font-size="14.00">Corpus Root</text>
<text xml:space="preserve" text-anchor="middle" x="397.5" y="-227.2" font-family="Times,serif" font-size="14.00">{corpus_name}/</text>
</g>
<!-- bagit_files -->
<g id="node2" class="node">
<title>bagit_files</title>
<path fill="none" stroke="black" d="M185.5,-184C185.5,-184 85.5,-184 85.5,-184 79.5,-184 73.5,-178 73.5,-172 73.5,-172 73.5,-122 73.5,-122 73.5,-116 79.5,-110 85.5,-110 85.5,-110 185.5,-110 185.5,-110 191.5,-110 197.5,-116 197.5,-122 197.5,-122 197.5,-172 197.5,-172 197.5,-178 191.5,-184 185.5,-184"/>
<text xml:space="preserve" text-anchor="middle" x="135.5" y="-166.7" font-family="Times,serif" font-size="14.00">BAGIT Files</text>
<text xml:space="preserve" text-anchor="middle" x="135.5" y="-150.2" font-family="Times,serif" font-size="14.00">bagit.txt</text>
<text xml:space="preserve" text-anchor="middle" x="135.5" y="-133.7" font-family="Times,serif" font-size="14.00">bag&#45;info.txt</text>
<text xml:space="preserve" text-anchor="middle" x="135.5" y="-117.2" font-family="Times,serif" font-size="14.00">manifest&#45;sha256.txt</text>
</g>
<!-- corpus&#45;&gt;bagit_files -->
<g id="edge1" class="edge">
<title>corpus&#45;&gt;bagit_files</title>
<path fill="none" stroke="black" d="M344.33,-226.89C308.01,-217.64 258.79,-203.86 208.36,-184.53"/>
<polygon fill="black" stroke="black" points="209.93,-181.38 199.34,-181 207.38,-187.9 209.93,-181.38"/>
</g>
<!-- data -->
<g id="node3" class="node">
<title>data</title>
<path fill="none" stroke="black" d="M315.5,-167.5C315.5,-167.5 227.5,-167.5 227.5,-167.5 221.5,-167.5 215.5,-161.5 215.5,-155.5 215.5,-155.5 215.5,-138.5 215.5,-138.5 215.5,-132.5 221.5,-126.5 227.5,-126.5 227.5,-126.5 315.5,-126.5 315.5,-126.5 321.5,-126.5 327.5,-132.5 327.5,-138.5 327.5,-138.5 327.5,-155.5 327.5,-155.5 327.5,-161.5 321.5,-167.5 315.5,-167.5"/>
<text xml:space="preserve" text-anchor="middle" x="271.5" y="-150.2" font-family="Times,serif" font-size="14.00">data/</text>
<text xml:space="preserve" text-anchor="middle" x="271.5" y="-133.7" font-family="Times,serif" font-size="14.00">(BAGIT payload)</text>
</g>
<!-- corpus&#45;&gt;data -->
<g id="edge2" class="edge">
<title>corpus&#45;&gt;data</title>
<path fill="none" stroke="black" d="M370.16,-219.65C351.91,-206.4 327.72,-188.83 307.86,-174.4"/>
<polygon fill="black" stroke="black" points="310.16,-171.75 300.01,-168.7 306.05,-177.41 310.16,-171.75"/>
</g>
<!-- relations -->
<g id="node4" class="node">
<title>relations</title>
<path fill="none" stroke="black" d="M437.38,-167.5C437.38,-167.5 357.62,-167.5 357.62,-167.5 351.62,-167.5 345.62,-161.5 345.62,-155.5 345.62,-155.5 345.62,-138.5 345.62,-138.5 345.62,-132.5 351.62,-126.5 357.62,-126.5 357.62,-126.5 437.38,-126.5 437.38,-126.5 443.38,-126.5 449.38,-132.5 449.38,-138.5 449.38,-138.5 449.38,-155.5 449.38,-155.5 449.38,-161.5 443.38,-167.5 437.38,-167.5"/>
<text xml:space="preserve" text-anchor="middle" x="397.5" y="-150.2" font-family="Times,serif" font-size="14.00">relations/</text>
<text xml:space="preserve" text-anchor="middle" x="397.5" y="-133.7" font-family="Times,serif" font-size="14.00">(similarity data)</text>
</g>
<!-- corpus&#45;&gt;relations -->
<g id="edge3" class="edge">
<title>corpus&#45;&gt;relations</title>
<path fill="none" stroke="black" d="M397.5,-219.65C397.5,-207.78 397.5,-192.44 397.5,-179"/>
<polygon fill="black" stroke="black" points="401,-179.33 397.5,-169.33 394,-179.33 401,-179.33"/>
</g>
<!-- analysis -->
<g id="node5" class="node">
<title>analysis</title>
<path fill="none" stroke="black" d="M577.38,-167.5C577.38,-167.5 479.62,-167.5 479.62,-167.5 473.62,-167.5 467.62,-161.5 467.62,-155.5 467.62,-155.5 467.62,-138.5 467.62,-138.5 467.62,-132.5 473.62,-126.5 479.62,-126.5 479.62,-126.5 577.38,-126.5 577.38,-126.5 583.38,-126.5 589.38,-132.5 589.38,-138.5 589.38,-138.5 589.38,-155.5 589.38,-155.5 589.38,-161.5 583.38,-167.5 577.38,-167.5"/>
<text xml:space="preserve" text-anchor="middle" x="528.5" y="-150.2" font-family="Times,serif" font-size="14.00">analysis/</text>
<text xml:space="preserve" text-anchor="middle" x="528.5" y="-133.7" font-family="Times,serif" font-size="14.00">(metrics &amp; reports)</text>
</g>
<!-- corpus&#45;&gt;analysis -->
<g id="edge4" class="edge">
<title>corpus&#45;&gt;analysis</title>
<path fill="none" stroke="black" d="M425.93,-219.65C444.89,-206.4 470.05,-188.83 490.7,-174.4"/>
<polygon fill="black" stroke="black" points="492.7,-177.28 498.89,-168.68 488.69,-171.54 492.7,-177.28"/>
</g>
<!-- provenance -->
<g id="node6" class="node">
<title>provenance</title>
<path fill="none" stroke="black" d="M719.5,-167.5C719.5,-167.5 619.5,-167.5 619.5,-167.5 613.5,-167.5 607.5,-161.5 607.5,-155.5 607.5,-155.5 607.5,-138.5 607.5,-138.5 607.5,-132.5 613.5,-126.5 619.5,-126.5 619.5,-126.5 719.5,-126.5 719.5,-126.5 725.5,-126.5 731.5,-132.5 731.5,-138.5 731.5,-138.5 731.5,-155.5 731.5,-155.5 731.5,-161.5 725.5,-167.5 719.5,-167.5"/>
<text xml:space="preserve" text-anchor="middle" x="669.5" y="-150.2" font-family="Times,serif" font-size="14.00">provenance/</text>
<text xml:space="preserve" text-anchor="middle" x="669.5" y="-133.7" font-family="Times,serif" font-size="14.00">(processing history)</text>
</g>
<!-- corpus&#45;&gt;provenance -->
<g id="edge5" class="edge">
<title>corpus&#45;&gt;provenance</title>
<path fill="none" stroke="black" d="M450.91,-227.83C491.96,-218.13 549.72,-202.88 598.5,-184 606.75,-180.81 615.31,-176.96 623.51,-172.99"/>
<polygon fill="black" stroke="black" points="624.91,-176.2 632.3,-168.6 621.79,-169.94 624.91,-176.2"/>
</g>
<!-- documents -->
<g id="node7" class="node">
<title>documents</title>
<path fill="none" stroke="black" d="M67,-74C67,-74 12,-74 12,-74 6,-74 0,-68 0,-62 0,-62 0,-12 0,-12 0,-6 6,0 12,0 12,0 67,0 67,0 73,0 79,-6 79,-12 79,-12 79,-62 79,-62 79,-68 73,-74 67,-74"/>
<text xml:space="preserve" text-anchor="middle" x="39.5" y="-56.7" font-family="Times,serif" font-size="14.00">documents/</text>
<text xml:space="preserve" text-anchor="middle" x="39.5" y="-40.2" font-family="Times,serif" font-size="14.00">pdf/</text>
<text xml:space="preserve" text-anchor="middle" x="39.5" y="-23.7" font-family="Times,serif" font-size="14.00">xml/</text>
<text xml:space="preserve" text-anchor="middle" x="39.5" y="-7.2" font-family="Times,serif" font-size="14.00">html/</text>
</g>
<!-- data&#45;&gt;documents -->
<g id="edge6" class="edge">
<title>data&#45;&gt;documents</title>
<path fill="none" stroke="black" d="M238.77,-126.12C228.65,-120.45 217.31,-114.58 206.5,-110 159.07,-89.9 139.87,-97.49 89.58,-73.93"/>
<polygon fill="black" stroke="black" points="91.34,-70.89 80.82,-69.64 88.26,-77.18 91.34,-70.89"/>
</g>
<!-- semantic -->
<g id="node8" class="node">
<title>semantic</title>
<path fill="none" stroke="black" d="M199.62,-57.5C199.62,-57.5 109.38,-57.5 109.38,-57.5 103.38,-57.5 97.38,-51.5 97.38,-45.5 97.38,-45.5 97.38,-28.5 97.38,-28.5 97.38,-22.5 103.38,-16.5 109.38,-16.5 109.38,-16.5 199.62,-16.5 199.62,-16.5 205.62,-16.5 211.62,-22.5 211.62,-28.5 211.62,-28.5 211.62,-45.5 211.62,-45.5 211.62,-51.5 205.62,-57.5 199.62,-57.5"/>
<text xml:space="preserve" text-anchor="middle" x="154.5" y="-40.2" font-family="Times,serif" font-size="14.00">semantic/</text>
<text xml:space="preserve" text-anchor="middle" x="154.5" y="-23.7" font-family="Times,serif" font-size="14.00">(enriched HTML)</text>
</g>
<!-- data&#45;&gt;semantic -->
<g id="edge7" class="edge">
<title>data&#45;&gt;semantic</title>
<path fill="none" stroke="black" d="M250.04,-126.19C231.57,-109.14 204.73,-84.36 184.19,-65.41"/>
<polygon fill="black" stroke="black" points="186.66,-62.92 176.94,-58.71 181.91,-68.06 186.66,-62.92"/>
</g>
<!-- metadata -->
<g id="node9" class="node">
<title>metadata</title>
<path fill="none" stroke="black" d="M301.62,-57.5C301.62,-57.5 241.38,-57.5 241.38,-57.5 235.38,-57.5 229.38,-51.5 229.38,-45.5 229.38,-45.5 229.38,-28.5 229.38,-28.5 229.38,-22.5 235.38,-16.5 241.38,-16.5 241.38,-16.5 301.62,-16.5 301.62,-16.5 307.62,-16.5 313.62,-22.5 313.62,-28.5 313.62,-28.5 313.62,-45.5 313.62,-45.5 313.62,-51.5 307.62,-57.5 301.62,-57.5"/>
<text xml:space="preserve" text-anchor="middle" x="271.5" y="-40.2" font-family="Times,serif" font-size="14.00">metadata/</text>
<text xml:space="preserve" text-anchor="middle" x="271.5" y="-23.7" font-family="Times,serif" font-size="14.00">(JSON files)</text>
</g>
<!-- data&#45;&gt;metadata -->
<g id="edge8" class="edge">
<title>data&#45;&gt;metadata</title>
<path fill="none" stroke="black" d="M271.5,-126.19C271.5,-110.21 271.5,-87.43 271.5,-69.03"/>
<polygon fill="black" stroke="black" points="275,-69.2 271.5,-59.2 268,-69.2 275,-69.2"/>
</g>
<!-- keyphrases -->
<g id="node10" class="node">
<title>keyphrases</title>
<path fill="none" stroke="black" d="M399.38,-57.5C399.38,-57.5 343.62,-57.5 343.62,-57.5 337.62,-57.5 331.62,-51.5 331.62,-45.5 331.62,-45.5 331.62,-28.5 331.62,-28.5 331.62,-22.5 337.62,-16.5 343.62,-16.5 343.62,-16.5 399.38,-16.5 399.38,-16.5 405.38,-16.5 411.38,-22.5 411.38,-28.5 411.38,-28.5 411.38,-45.5 411.38,-45.5 411.38,-51.5 405.38,-57.5 399.38,-57.5"/>
<text xml:space="preserve" text-anchor="middle" x="371.5" y="-40.2" font-family="Times,serif" font-size="14.00">keyphrases/</text>
<text xml:space="preserve" text-anchor="middle" x="371.5" y="-23.7" font-family="Times,serif" font-size="14.00">(extracted)</text>
</g>
<!-- data&#45;&gt;keyphrases -->
<g id="edge9" class="edge">
<title>data&#45;&gt;keyphrases</title>
<path fill="none" stroke="black" d="M289.84,-126.19C305.49,-109.29 328.16,-84.81 345.65,-65.92"/>
<polygon fill="black" stroke="black" points="348.02,-68.51 352.25,-58.79 342.88,-63.75 348.02,-68.51"/>
</g>
<!-- indices -->
<g id="node11" class="node">
<title>indices</title>
<path fill="none" stroke="black" d="M477.25,-57.5C477.25,-57.5 441.75,-57.5 441.75,-57.5 435.75,-57.5 429.75,-51.5 429.75,-45.5 429.75,-45.5 429.75,-28.5 429.75,-28.5 429.75,-22.5 435.75,-16.5 441.75,-16.5 441.75,-16.5 477.25,-16.5 477.25,-16.5 483.25,-16.5 489.25,-22.5 489.25,-28.5 489.25,-28.5 489.25,-45.5 489.25,-45.5 489.25,-51.5 483.25,-57.5 477.25,-57.5"/>
<text xml:space="preserve" text-anchor="middle" x="459.5" y="-40.2" font-family="Times,serif" font-size="14.00">indices/</text>
<text xml:space="preserve" text-anchor="middle" x="459.5" y="-23.7" font-family="Times,serif" font-size="14.00">(search)</text>
</g>
<!-- data&#45;&gt;indices -->
<g id="edge10" class="edge">
<title>data&#45;&gt;indices</title>
<path fill="none" stroke="black" d="M305.9,-126.1C315.68,-120.67 326.42,-114.94 336.5,-110 372.98,-92.14 386.42,-96.09 420.5,-74 424.5,-71.41 428.48,-68.39 432.28,-65.23"/>
<polygon fill="black" stroke="black" points="434.46,-67.97 439.62,-58.72 429.81,-62.74 434.46,-67.97"/>
</g>
</g>
</svg>
