<?xml version="1.0" encoding="UTF-8" standalone="no"?>
<!DOCTYPE svg PUBLIC "-//W3C//DTD SVG 1.1//EN"
 "http://www.w3.org/Graphics/SVG/1.1/DTD/svg11.dtd">
<!-- Generated by graphviz version 13.1.0 (20250701.0955)
 -->
<!-- Title: ingestion_workflow Pages: 1 -->
<svg width="152pt" height="511pt"
 viewBox="0.00 0.00 152.00 511.00" xmlns="http://www.w3.org/2000/svg" xmlns:xlink="http://www.w3.org/1999/xlink">
<g id="graph0" class="graph" transform="scale(1 1) rotate(0) translate(4 507)">
<title>ingestion_workflow</title>
<polygon fill="white" stroke="none" points="-4,4 -4,-507 148.25,-507 148.25,4 -4,4"/>
<!-- source -->
<g id="node1" class="node">
<title>source</title>
<path fill="none" stroke="black" d="M132.25,-503C132.25,-503 12,-503 12,-503 6,-503 0,-497 0,-491 0,-491 0,-474 0,-474 0,-468 6,-462 12,-462 12,-462 132.25,-462 132.25,-462 138.25,-462 144.25,-468 144.25,-474 144.25,-474 144.25,-491 144.25,-491 144.25,-497 138.25,-503 132.25,-503"/>
<text xml:space="preserve" text-anchor="middle" x="72.12" y="-485.7" font-family="Times,serif" font-size="14.00">Source</text>
<text xml:space="preserve" text-anchor="middle" x="72.12" y="-469.2" font-family="Times,serif" font-size="14.00">(Repository/Collection)</text>
</g>
<!-- search -->
<g id="node2" class="node">
<title>search</title>
<path fill="none" stroke="black" d="M104.88,-426C104.88,-426 39.38,-426 39.38,-426 33.38,-426 27.38,-420 27.38,-414 27.38,-414 27.38,-397 27.38,-397 27.38,-391 33.38,-385 39.38,-385 39.38,-385 104.88,-385 104.88,-385 110.88,-385 116.88,-391 116.88,-397 116.88,-397 116.88,-414 116.88,-414 116.88,-420 110.88,-426 104.88,-426"/>
<text xml:space="preserve" text-anchor="middle" x="72.12" y="-408.7" font-family="Times,serif" font-size="14.00">Search/Select</text>
<text xml:space="preserve" text-anchor="middle" x="72.12" y="-392.2" font-family="Times,serif" font-size="14.00">Papers</text>
</g>
<!-- source&#45;&gt;search -->
<g id="edge1" class="edge">
<title>source&#45;&gt;search</title>
<path fill="none" stroke="black" d="M72.12,-461.79C72.12,-454.45 72.12,-445.91 72.12,-437.78"/>
<polygon fill="black" stroke="black" points="75.63,-437.85 72.13,-427.85 68.63,-437.85 75.63,-437.85"/>
</g>
<!-- download -->
<g id="node3" class="node">
<title>download</title>
<path fill="none" stroke="black" d="M96.25,-349C96.25,-349 48,-349 48,-349 42,-349 36,-343 36,-337 36,-337 36,-320 36,-320 36,-314 42,-308 48,-308 48,-308 96.25,-308 96.25,-308 102.25,-308 108.25,-314 108.25,-320 108.25,-320 108.25,-337 108.25,-337 108.25,-343 102.25,-349 96.25,-349"/>
<text xml:space="preserve" text-anchor="middle" x="72.12" y="-331.7" font-family="Times,serif" font-size="14.00">Download</text>
<text xml:space="preserve" text-anchor="middle" x="72.12" y="-315.2" font-family="Times,serif" font-size="14.00">Files</text>
</g>
<!-- search&#45;&gt;download -->
<g id="edge2" class="edge">
<title>search&#45;&gt;download</title>
<path fill="none" stroke="black" d="M72.12,-384.79C72.12,-377.45 72.12,-368.91 72.12,-360.78"/>
<polygon fill="black" stroke="black" points="75.63,-360.85 72.13,-350.85 68.63,-360.85 75.63,-360.85"/>
</g>
<!-- extract -->
<g id="node4" class="node">
<title>extract</title>
<path fill="none" stroke="black" d="M93.62,-272C93.62,-272 50.62,-272 50.62,-272 44.62,-272 38.62,-266 38.62,-260 38.62,-260 38.62,-243 38.62,-243 38.62,-237 44.62,-231 50.62,-231 50.62,-231 93.62,-231 93.62,-231 99.62,-231 105.62,-237 105.62,-243 105.62,-243 105.62,-260 105.62,-260 105.62,-266 99.62,-272 93.62,-272"/>
<text xml:space="preserve" text-anchor="middle" x="72.12" y="-254.7" font-family="Times,serif" font-size="14.00">Extract</text>
<text xml:space="preserve" text-anchor="middle" x="72.12" y="-238.2" font-family="Times,serif" font-size="14.00">Metadata</text>
</g>
<!-- download&#45;&gt;extract -->
<g id="edge3" class="edge">
<title>download&#45;&gt;extract</title>
<path fill="none" stroke="black" d="M72.12,-307.79C72.12,-300.45 72.12,-291.91 72.12,-283.78"/>
<polygon fill="black" stroke="black" points="75.63,-283.85 72.13,-273.85 68.63,-283.85 75.63,-283.85"/>
</g>
<!-- validate -->
<g id="node5" class="node">
<title>validate</title>
<path fill="none" stroke="black" d="M93.62,-195C93.62,-195 50.62,-195 50.62,-195 44.62,-195 38.62,-189 38.62,-183 38.62,-183 38.62,-166 38.62,-166 38.62,-160 44.62,-154 50.62,-154 50.62,-154 93.62,-154 93.62,-154 99.62,-154 105.62,-160 105.62,-166 105.62,-166 105.62,-183 105.62,-183 105.62,-189 99.62,-195 93.62,-195"/>
<text xml:space="preserve" text-anchor="middle" x="72.12" y="-177.7" font-family="Times,serif" font-size="14.00">Validate</text>
<text xml:space="preserve" text-anchor="middle" x="72.12" y="-161.2" font-family="Times,serif" font-size="14.00">Metadata</text>
</g>
<!-- extract&#45;&gt;validate -->
<g id="edge4" class="edge">
<title>extract&#45;&gt;validate</title>
<path fill="none" stroke="black" d="M72.12,-230.79C72.12,-223.45 72.12,-214.91 72.12,-206.78"/>
<polygon fill="black" stroke="black" points="75.63,-206.85 72.13,-196.85 68.63,-206.85 75.63,-206.85"/>
</g>
<!-- add -->
<g id="node6" class="node">
<title>add</title>
<path fill="none" stroke="black" d="M87.62,-118C87.62,-118 56.62,-118 56.62,-118 50.62,-118 44.62,-112 44.62,-106 44.62,-106 44.62,-89 44.62,-89 44.62,-83 50.62,-77 56.62,-77 56.62,-77 87.62,-77 87.62,-77 93.62,-77 99.62,-83 99.62,-89 99.62,-89 99.62,-106 99.62,-106 99.62,-112 93.62,-118 87.62,-118"/>
<text xml:space="preserve" text-anchor="middle" x="72.12" y="-100.7" font-family="Times,serif" font-size="14.00">Add to</text>
<text xml:space="preserve" text-anchor="middle" x="72.12" y="-84.2" font-family="Times,serif" font-size="14.00">Corpus</text>
</g>
<!-- validate&#45;&gt;add -->
<g id="edge5" class="edge">
<title>validate&#45;&gt;add</title>
<path fill="none" stroke="black" d="M72.12,-153.79C72.12,-146.45 72.12,-137.91 72.12,-129.78"/>
<polygon fill="black" stroke="black" points="75.63,-129.85 72.13,-119.85 68.63,-129.85 75.63,-129.85"/>
</g>
<!-- update -->
<g id="node7" class="node">
<title>update</title>
<path fill="none" stroke="black" d="M88.75,-41C88.75,-41 55.5,-41 55.5,-41 49.5,-41 43.5,-35 43.5,-29 43.5,-29 43.5,-12 43.5,-12 43.5,-6 49.5,0 55.5,0 55.5,0 88.75,0 88.75,0 94.75,0 100.75,-6 100.75,-12 100.75,-12 100.75,-29 100.75,-29 100.75,-35 94.75,-41 88.75,-41"/>
<text xml:space="preserve" text-anchor="middle" x="72.12" y="-23.7" font-family="Times,serif" font-size="14.00">Update</text>
<text xml:space="preserve" text-anchor="middle" x="72.12" y="-7.2" font-family="Times,serif" font-size="14.00">BAGIT</text>
</g>
<!-- add&#45;&gt;update -->
<g id="edge6" class="edge">
<title>add&#45;&gt;update</title>
<path fill="none" stroke="black" d="M72.12,-76.79C72.12,-69.45 72.12,-60.91 72.12,-52.78"/>
<polygon fill="black" stroke="black" points="75.63,-52.85 72.13,-42.85 68.63,-52.85 75.63,-52.85"/>
</g>
</g>
</svg>
