<?xml version="1.0" encoding="UTF-8" standalone="no"?>
<!DOCTYPE svg PUBLIC "-//W3C//DTD SVG 1.1//EN"
 "http://www.w3.org/Graphics/SVG/1.1/DTD/svg11.dtd">
<!-- Generated by graphviz version 13.1.0 (20250701.0955)
 -->
<!-- Title: preservation Pages: 1 -->
<svg width="141pt" height="455pt"
 viewBox="0.00 0.00 141.00 455.00" xmlns="http://www.w3.org/2000/svg" xmlns:xlink="http://www.w3.org/1999/xlink">
<g id="graph0" class="graph" transform="scale(1 1) rotate(0) translate(4 450.5)">
<title>preservation</title>
<polygon fill="white" stroke="none" points="-4,4 -4,-450.5 136.75,-450.5 136.75,4 -4,4"/>
<!-- create -->
<g id="node1" class="node">
<title>create</title>
<path fill="none" stroke="black" d="M103.5,-446.5C103.5,-446.5 33.5,-446.5 33.5,-446.5 27.5,-446.5 21.5,-440.5 21.5,-434.5 21.5,-434.5 21.5,-417.5 21.5,-417.5 21.5,-411.5 27.5,-405.5 33.5,-405.5 33.5,-405.5 103.5,-405.5 103.5,-405.5 109.5,-405.5 115.5,-411.5 115.5,-417.5 115.5,-417.5 115.5,-434.5 115.5,-434.5 115.5,-440.5 109.5,-446.5 103.5,-446.5"/>
<text xml:space="preserve" text-anchor="middle" x="68.5" y="-429.2" font-family="Times,serif" font-size="14.00">Create Corpus</text>
<text xml:space="preserve" text-anchor="middle" x="68.5" y="-412.7" font-family="Times,serif" font-size="14.00">with BAGIT</text>
</g>
<!-- add_metadata -->
<g id="node2" class="node">
<title>add_metadata</title>
<path fill="none" stroke="black" d="M120.75,-368.5C120.75,-368.5 16.25,-368.5 16.25,-368.5 10.25,-368.5 4.25,-362.5 4.25,-356.5 4.25,-356.5 4.25,-339.5 4.25,-339.5 4.25,-333.5 10.25,-327.5 16.25,-327.5 16.25,-327.5 120.75,-327.5 120.75,-327.5 126.75,-327.5 132.75,-333.5 132.75,-339.5 132.75,-339.5 132.75,-356.5 132.75,-356.5 132.75,-362.5 126.75,-368.5 120.75,-368.5"/>
<text xml:space="preserve" text-anchor="middle" x="68.5" y="-351.2" font-family="Times,serif" font-size="14.00">Add Comprehensive</text>
<text xml:space="preserve" text-anchor="middle" x="68.5" y="-334.7" font-family="Times,serif" font-size="14.00">Metadata</text>
</g>
<!-- create&#45;&gt;add_metadata -->
<g id="edge1" class="edge">
<title>create&#45;&gt;add_metadata</title>
<path fill="none" stroke="black" d="M68.5,-405.03C68.5,-397.44 68.5,-388.6 68.5,-380.21"/>
<polygon fill="black" stroke="black" points="72,-380.35 68.5,-370.35 65,-380.35 72,-380.35"/>
</g>
<!-- validate -->
<g id="node3" class="node">
<title>validate</title>
<path fill="none" stroke="black" d="M87.75,-290.5C87.75,-290.5 49.25,-290.5 49.25,-290.5 43.25,-290.5 37.25,-284.5 37.25,-278.5 37.25,-278.5 37.25,-261.5 37.25,-261.5 37.25,-255.5 43.25,-249.5 49.25,-249.5 49.25,-249.5 87.75,-249.5 87.75,-249.5 93.75,-249.5 99.75,-255.5 99.75,-261.5 99.75,-261.5 99.75,-278.5 99.75,-278.5 99.75,-284.5 93.75,-290.5 87.75,-290.5"/>
<text xml:space="preserve" text-anchor="middle" x="68.5" y="-273.2" font-family="Times,serif" font-size="14.00">Validate</text>
<text xml:space="preserve" text-anchor="middle" x="68.5" y="-256.7" font-family="Times,serif" font-size="14.00">Integrity</text>
</g>
<!-- add_metadata&#45;&gt;validate -->
<g id="edge2" class="edge">
<title>add_metadata&#45;&gt;validate</title>
<path fill="none" stroke="black" d="M68.5,-327.03C68.5,-319.44 68.5,-310.6 68.5,-302.21"/>
<polygon fill="black" stroke="black" points="72,-302.35 68.5,-292.35 65,-302.35 72,-302.35"/>
</g>
<!-- document -->
<g id="node4" class="node">
<title>document</title>
<path fill="none" stroke="black" d="M61,-212.5C61,-212.5 12,-212.5 12,-212.5 6,-212.5 0,-206.5 0,-200.5 0,-200.5 0,-183.5 0,-183.5 0,-177.5 6,-171.5 12,-171.5 12,-171.5 61,-171.5 61,-171.5 67,-171.5 73,-177.5 73,-183.5 73,-183.5 73,-200.5 73,-200.5 73,-206.5 67,-212.5 61,-212.5"/>
<text xml:space="preserve" text-anchor="middle" x="36.5" y="-195.2" font-family="Times,serif" font-size="14.00">Document</text>
<text xml:space="preserve" text-anchor="middle" x="36.5" y="-178.7" font-family="Times,serif" font-size="14.00">Structure</text>
</g>
<!-- validate&#45;&gt;document -->
<g id="edge3" class="edge">
<title>validate&#45;&gt;document</title>
<path fill="none" stroke="black" d="M60.09,-249.03C56.79,-241.18 52.91,-231.98 49.28,-223.34"/>
<polygon fill="black" stroke="black" points="52.55,-222.09 45.44,-214.23 46.09,-224.8 52.55,-222.09"/>
</g>
<!-- backup -->
<g id="node5" class="node">
<title>backup</title>
<path fill="none" stroke="black" d="M60.75,-119C60.75,-119 22.25,-119 22.25,-119 16.25,-119 10.25,-113 10.25,-107 10.25,-107 10.25,-90 10.25,-90 10.25,-84 16.25,-78 22.25,-78 22.25,-78 60.75,-78 60.75,-78 66.75,-78 72.75,-84 72.75,-90 72.75,-90 72.75,-107 72.75,-107 72.75,-113 66.75,-119 60.75,-119"/>
<text xml:space="preserve" text-anchor="middle" x="41.5" y="-101.7" font-family="Times,serif" font-size="14.00">Create</text>
<text xml:space="preserve" text-anchor="middle" x="41.5" y="-85.2" font-family="Times,serif" font-size="14.00">Backups</text>
</g>
<!-- document&#45;&gt;backup -->
<g id="edge4" class="edge">
<title>document&#45;&gt;backup</title>
<path fill="none" stroke="black" d="M37.58,-171.15C38.23,-159.28 39.07,-143.94 39.81,-130.5"/>
<polygon fill="black" stroke="black" points="43.28,-131 40.33,-120.83 36.29,-130.62 43.28,-131"/>
</g>
<!-- monitor -->
<g id="node6" class="node">
<title>monitor</title>
<path fill="none" stroke="black" d="M97.5,-41C97.5,-41 45.5,-41 45.5,-41 39.5,-41 33.5,-35 33.5,-29 33.5,-29 33.5,-12 33.5,-12 33.5,-6 39.5,0 45.5,0 45.5,0 97.5,0 97.5,0 103.5,0 109.5,-6 109.5,-12 109.5,-12 109.5,-29 109.5,-29 109.5,-35 103.5,-41 97.5,-41"/>
<text xml:space="preserve" text-anchor="middle" x="71.5" y="-23.7" font-family="Times,serif" font-size="14.00">Monitor &amp;</text>
<text xml:space="preserve" text-anchor="middle" x="71.5" y="-7.2" font-family="Times,serif" font-size="14.00">Maintain</text>
</g>
<!-- backup&#45;&gt;monitor -->
<g id="edge5" class="edge">
<title>backup&#45;&gt;monitor</title>
<path fill="none" stroke="black" d="M49.38,-77.53C52.48,-69.68 56.11,-60.48 59.52,-51.84"/>
<polygon fill="black" stroke="black" points="62.7,-53.33 63.11,-42.74 56.19,-50.76 62.7,-53.33"/>
</g>
<!-- monitor&#45;&gt;validate -->
<g id="edge6" class="edge">
<title>monitor&#45;&gt;validate</title>
<path fill="none" stroke="black" d="M75.82,-41.26C77.97,-52.06 80.35,-65.7 81.5,-78 84.88,-114.31 84.65,-194.85 82.5,-212.5 81.48,-220.89 79.63,-229.82 77.6,-238.05"/>
<polygon fill="black" stroke="black" points="74.24,-237.06 75.08,-247.62 81.01,-238.85 74.24,-237.06"/>
<text xml:space="preserve" text-anchor="middle" x="106.58" y="-140.2" font-family="Times,serif" font-size="14.00">Periodic</text>
</g>
</g>
</svg>
