<?xml version="1.0" encoding="UTF-8" standalone="no"?>
<!DOCTYPE svg PUBLIC "-//W3C//DTD SVG 1.1//EN"
 "http://www.w3.org/Graphics/SVG/1.1/DTD/svg11.dtd">
<!-- Generated by graphviz version 13.1.0 (20250701.0955)
 -->
<!-- Title: system_flow Pages: 1 -->
<svg width="180pt" height="583pt"
 viewBox="0.00 0.00 180.00 583.00" xmlns="http://www.w3.org/2000/svg" xmlns:xlink="http://www.w3.org/1999/xlink">
<g id="graph0" class="graph" transform="scale(1 1) rotate(0) translate(4 579)">
<title>system_flow</title>
<polygon fill="white" stroke="none" points="-4,4 -4,-579 176,-579 176,4 -4,4"/>
<!-- start -->
<g id="node1" class="node">
<title>start</title>
<path fill="none" stroke="black" d="M122.88,-575C122.88,-575 49.12,-575 49.12,-575 43.12,-575 37.12,-569 37.12,-563 37.12,-563 37.12,-546 37.12,-546 37.12,-540 43.12,-534 49.12,-534 49.12,-534 122.88,-534 122.88,-534 128.88,-534 134.88,-540 134.88,-546 134.88,-546 134.88,-563 134.88,-563 134.88,-569 128.88,-575 122.88,-575"/>
<text xml:space="preserve" text-anchor="middle" x="86" y="-557.7" font-family="Times,serif" font-size="14.00">User Action</text>
<text xml:space="preserve" text-anchor="middle" x="86" y="-541.2" font-family="Times,serif" font-size="14.00">(CLI or Script)</text>
</g>
<!-- create_corpus -->
<g id="node2" class="node">
<title>create_corpus</title>
<path fill="none" stroke="black" d="M130.38,-498C130.38,-498 41.62,-498 41.62,-498 35.62,-498 29.62,-492 29.62,-486 29.62,-486 29.62,-469 29.62,-469 29.62,-463 35.62,-457 41.62,-457 41.62,-457 130.38,-457 130.38,-457 136.38,-457 142.38,-463 142.38,-469 142.38,-469 142.38,-486 142.38,-486 142.38,-492 136.38,-498 130.38,-498"/>
<text xml:space="preserve" text-anchor="middle" x="86" y="-480.7" font-family="Times,serif" font-size="14.00">Create Corpus</text>
<text xml:space="preserve" text-anchor="middle" x="86" y="-464.2" font-family="Times,serif" font-size="14.00">(CorpusManager)</text>
</g>
<!-- start&#45;&gt;create_corpus -->
<g id="edge1" class="edge">
<title>start&#45;&gt;create_corpus</title>
<path fill="none" stroke="black" d="M86,-533.79C86,-526.45 86,-517.91 86,-509.78"/>
<polygon fill="black" stroke="black" points="89.5,-509.85 86,-499.85 82.5,-509.85 89.5,-509.85"/>
</g>
<!-- search_repo -->
<g id="node3" class="node">
<title>search_repo</title>
<path fill="none" stroke="black" d="M136.75,-421C136.75,-421 35.25,-421 35.25,-421 29.25,-421 23.25,-415 23.25,-409 23.25,-409 23.25,-392 23.25,-392 23.25,-386 29.25,-380 35.25,-380 35.25,-380 136.75,-380 136.75,-380 142.75,-380 148.75,-386 148.75,-392 148.75,-392 148.75,-409 148.75,-409 148.75,-415 142.75,-421 136.75,-421"/>
<text xml:space="preserve" text-anchor="middle" x="86" y="-403.7" font-family="Times,serif" font-size="14.00">Search Repository</text>
<text xml:space="preserve" text-anchor="middle" x="86" y="-387.2" font-family="Times,serif" font-size="14.00">(RepositoryFactory)</text>
</g>
<!-- create_corpus&#45;&gt;search_repo -->
<g id="edge2" class="edge">
<title>create_corpus&#45;&gt;search_repo</title>
<path fill="none" stroke="black" d="M86,-456.79C86,-449.45 86,-440.91 86,-432.78"/>
<polygon fill="black" stroke="black" points="89.5,-432.85 86,-422.85 82.5,-432.85 89.5,-432.85"/>
</g>
<!-- download -->
<g id="node4" class="node">
<title>download</title>
<path fill="none" stroke="black" d="M130,-344C130,-344 42,-344 42,-344 36,-344 30,-338 30,-332 30,-332 30,-315 30,-315 30,-309 36,-303 42,-303 42,-303 130,-303 130,-303 136,-303 142,-309 142,-315 142,-315 142,-332 142,-332 142,-338 136,-344 130,-344"/>
<text xml:space="preserve" text-anchor="middle" x="86" y="-326.7" font-family="Times,serif" font-size="14.00">Download Papers</text>
<text xml:space="preserve" text-anchor="middle" x="86" y="-310.2" font-family="Times,serif" font-size="14.00">(Repository)</text>
</g>
<!-- search_repo&#45;&gt;download -->
<g id="edge3" class="edge">
<title>search_repo&#45;&gt;download</title>
<path fill="none" stroke="black" d="M86,-379.79C86,-372.45 86,-363.91 86,-355.78"/>
<polygon fill="black" stroke="black" points="89.5,-355.85 86,-345.85 82.5,-355.85 89.5,-355.85"/>
</g>
<!-- extract_metadata -->
<g id="node5" class="node">
<title>extract_metadata</title>
<path fill="none" stroke="black" d="M138.25,-267C138.25,-267 33.75,-267 33.75,-267 27.75,-267 21.75,-261 21.75,-255 21.75,-255 21.75,-238 21.75,-238 21.75,-232 27.75,-226 33.75,-226 33.75,-226 138.25,-226 138.25,-226 144.25,-226 150.25,-232 150.25,-238 150.25,-238 150.25,-255 150.25,-255 150.25,-261 144.25,-267 138.25,-267"/>
<text xml:space="preserve" text-anchor="middle" x="86" y="-249.7" font-family="Times,serif" font-size="14.00">Extract Metadata</text>
<text xml:space="preserve" text-anchor="middle" x="86" y="-233.2" font-family="Times,serif" font-size="14.00">(MetadataProcessor)</text>
</g>
<!-- download&#45;&gt;extract_metadata -->
<g id="edge4" class="edge">
<title>download&#45;&gt;extract_metadata</title>
<path fill="none" stroke="black" d="M86,-302.79C86,-295.45 86,-286.91 86,-278.78"/>
<polygon fill="black" stroke="black" points="89.5,-278.85 86,-268.85 82.5,-278.85 89.5,-278.85"/>
</g>
<!-- add_to_corpus -->
<g id="node6" class="node">
<title>add_to_corpus</title>
<path fill="none" stroke="black" d="M160,-190C160,-190 12,-190 12,-190 6,-190 0,-184 0,-178 0,-178 0,-161 0,-161 0,-155 6,-149 12,-149 12,-149 160,-149 160,-149 166,-149 172,-155 172,-161 172,-161 172,-178 172,-178 172,-184 166,-190 160,-190"/>
<text xml:space="preserve" text-anchor="middle" x="86" y="-172.7" font-family="Times,serif" font-size="14.00">Add to Corpus</text>
<text xml:space="preserve" text-anchor="middle" x="86" y="-156.2" font-family="Times,serif" font-size="14.00">(CorpusManager.add_paper)</text>
</g>
<!-- extract_metadata&#45;&gt;add_to_corpus -->
<g id="edge5" class="edge">
<title>extract_metadata&#45;&gt;add_to_corpus</title>
<path fill="none" stroke="black" d="M86,-225.79C86,-218.45 86,-209.91 86,-201.78"/>
<polygon fill="black" stroke="black" points="89.5,-201.85 86,-191.85 82.5,-201.85 89.5,-201.85"/>
</g>
<!-- update_bagit -->
<g id="node7" class="node">
<title>update_bagit</title>
<path fill="none" stroke="black" d="M149.88,-113C149.88,-113 22.12,-113 22.12,-113 16.12,-113 10.12,-107 10.12,-101 10.12,-101 10.12,-84 10.12,-84 10.12,-78 16.12,-72 22.12,-72 22.12,-72 149.88,-72 149.88,-72 155.88,-72 161.88,-78 161.88,-84 161.88,-84 161.88,-101 161.88,-101 161.88,-107 155.88,-113 149.88,-113"/>
<text xml:space="preserve" text-anchor="middle" x="86" y="-95.7" font-family="Times,serif" font-size="14.00">Update BAGIT Manifest</text>
<text xml:space="preserve" text-anchor="middle" x="86" y="-79.2" font-family="Times,serif" font-size="14.00">(BagitManager)</text>
</g>
<!-- add_to_corpus&#45;&gt;update_bagit -->
<g id="edge6" class="edge">
<title>add_to_corpus&#45;&gt;update_bagit</title>
<path fill="none" stroke="black" d="M86,-148.79C86,-141.45 86,-132.91 86,-124.78"/>
<polygon fill="black" stroke="black" points="89.5,-124.85 86,-114.85 82.5,-124.85 89.5,-124.85"/>
</g>
<!-- end -->
<g id="node8" class="node">
<title>end</title>
<path fill="none" stroke="black" d="M125.88,-36C125.88,-36 46.12,-36 46.12,-36 40.12,-36 34.12,-30 34.12,-24 34.12,-24 34.12,-12 34.12,-12 34.12,-6 40.12,0 46.12,0 46.12,0 125.88,0 125.88,0 131.88,0 137.88,-6 137.88,-12 137.88,-12 137.88,-24 137.88,-24 137.88,-30 131.88,-36 125.88,-36"/>
<text xml:space="preserve" text-anchor="middle" x="86" y="-12.95" font-family="Times,serif" font-size="14.00">Paper in Corpus</text>
</g>
<!-- update_bagit&#45;&gt;end -->
<g id="edge7" class="edge">
<title>update_bagit&#45;&gt;end</title>
<path fill="none" stroke="black" d="M86,-71.69C86,-64.25 86,-55.64 86,-47.57"/>
<polygon fill="black" stroke="black" points="89.5,-47.83 86,-37.83 82.5,-47.83 89.5,-47.83"/>
</g>
</g>
</svg>
