<?xml version="1.0" encoding="UTF-8" standalone="no"?>
<!DOCTYPE svg PUBLIC "-//W3C//DTD SVG 1.1//EN"
 "http://www.w3.org/Graphics/SVG/1.1/DTD/svg11.dtd">
<!-- Generated by graphviz version 13.1.0 (20250701.0955)
 -->
<!-- Title: transformation Pages: 1 -->
<svg width="638pt" height="112pt"
 viewBox="0.00 0.00 638.00 112.00" xmlns="http://www.w3.org/2000/svg" xmlns:xlink="http://www.w3.org/1999/xlink">
<g id="graph0" class="graph" transform="scale(1 1) rotate(0) translate(4 107.82)">
<title>transformation</title>
<polygon fill="white" stroke="none" points="-4,4 -4,-107.82 633.5,-107.82 633.5,4 -4,4"/>
<!-- pdf -->
<g id="node1" class="node">
<title>pdf</title>
<path fill="none" stroke="black" d="M61,-100C61,-100 12,-100 12,-100 6,-100 0,-94 0,-88 0,-88 0,-71 0,-71 0,-65 6,-59 12,-59 12,-59 61,-59 61,-59 67,-59 73,-65 73,-71 73,-71 73,-88 73,-88 73,-94 67,-100 61,-100"/>
<text xml:space="preserve" text-anchor="middle" x="36.5" y="-82.7" font-family="Times,serif" font-size="14.00">PDF</text>
<text xml:space="preserve" text-anchor="middle" x="36.5" y="-66.2" font-family="Times,serif" font-size="14.00">Document</text>
</g>
<!-- html1 -->
<g id="node3" class="node">
<title>html1</title>
<path fill="none" stroke="black" d="M236,-70C236,-70 205,-70 205,-70 199,-70 193,-64 193,-58 193,-58 193,-41 193,-41 193,-35 199,-29 205,-29 205,-29 236,-29 236,-29 242,-29 248,-35 248,-41 248,-41 248,-58 248,-58 248,-64 242,-70 236,-70"/>
<text xml:space="preserve" text-anchor="middle" x="220.5" y="-52.7" font-family="Times,serif" font-size="14.00">HTML</text>
<text xml:space="preserve" text-anchor="middle" x="220.5" y="-36.2" font-family="Times,serif" font-size="14.00">(Basic)</text>
</g>
<!-- pdf&#45;&gt;html1 -->
<g id="edge1" class="edge">
<title>pdf&#45;&gt;html1</title>
<path fill="none" stroke="black" d="M73.43,-73.94C101.19,-69.61 140.56,-63.35 175,-57.5 177.15,-57.14 179.35,-56.76 181.58,-56.37"/>
<polygon fill="black" stroke="black" points="181.96,-59.86 191.2,-54.67 180.74,-52.96 181.96,-59.86"/>
<text xml:space="preserve" text-anchor="middle" x="133" y="-90.52" font-family="Times,serif" font-size="14.00">PDF→HTML</text>
<text xml:space="preserve" text-anchor="middle" x="133" y="-74.02" font-family="Times,serif" font-size="14.00">Converter</text>
</g>
<!-- xml -->
<g id="node2" class="node">
<title>xml</title>
<path fill="none" stroke="black" d="M61,-41C61,-41 12,-41 12,-41 6,-41 0,-35 0,-29 0,-29 0,-12 0,-12 0,-6 6,0 12,0 12,0 61,0 61,0 67,0 73,-6 73,-12 73,-12 73,-29 73,-29 73,-35 67,-41 61,-41"/>
<text xml:space="preserve" text-anchor="middle" x="36.5" y="-23.7" font-family="Times,serif" font-size="14.00">XML</text>
<text xml:space="preserve" text-anchor="middle" x="36.5" y="-7.2" font-family="Times,serif" font-size="14.00">Document</text>
</g>
<!-- xml&#45;&gt;html1 -->
<g id="edge2" class="edge">
<title>xml&#45;&gt;html1</title>
<path fill="none" stroke="black" d="M73.23,-16.92C101.4,-15.19 141.4,-15.18 175,-24.5 177.43,-25.17 179.87,-26.01 182.28,-26.95"/>
<polygon fill="black" stroke="black" points="180.71,-30.08 191.25,-31.08 183.63,-23.72 180.71,-30.08"/>
<text xml:space="preserve" text-anchor="middle" x="133" y="-44.2" font-family="Times,serif" font-size="14.00">XML→HTML</text>
<text xml:space="preserve" text-anchor="middle" x="133" y="-27.7" font-family="Times,serif" font-size="14.00">Converter</text>
</g>
<!-- html2 -->
<g id="node4" class="node">
<title>html2</title>
<path fill="none" stroke="black" d="M438.75,-70C438.75,-70 348.5,-70 348.5,-70 342.5,-70 336.5,-64 336.5,-58 336.5,-58 336.5,-41 336.5,-41 336.5,-35 342.5,-29 348.5,-29 348.5,-29 438.75,-29 438.75,-29 444.75,-29 450.75,-35 450.75,-41 450.75,-41 450.75,-58 450.75,-58 450.75,-64 444.75,-70 438.75,-70"/>
<text xml:space="preserve" text-anchor="middle" x="393.62" y="-52.7" font-family="Times,serif" font-size="14.00">HTML</text>
<text xml:space="preserve" text-anchor="middle" x="393.62" y="-36.2" font-family="Times,serif" font-size="14.00">(Structured/JATS)</text>
</g>
<!-- html1&#45;&gt;html2 -->
<g id="edge3" class="edge">
<title>html1&#45;&gt;html2</title>
<path fill="none" stroke="black" d="M248.24,-49.5C268.8,-49.5 298.15,-49.5 325.02,-49.5"/>
<polygon fill="black" stroke="black" points="324.84,-53 334.84,-49.5 324.84,-46 324.84,-53"/>
<text xml:space="preserve" text-anchor="middle" x="292.25" y="-69.2" font-family="Times,serif" font-size="14.00">JATS</text>
<text xml:space="preserve" text-anchor="middle" x="292.25" y="-52.7" font-family="Times,serif" font-size="14.00">Processor</text>
</g>
<!-- html3 -->
<g id="node5" class="node">
<title>html3</title>
<path fill="none" stroke="black" d="M617.5,-78.25C617.5,-78.25 549.75,-78.25 549.75,-78.25 543.75,-78.25 537.75,-72.25 537.75,-66.25 537.75,-66.25 537.75,-32.75 537.75,-32.75 537.75,-26.75 543.75,-20.75 549.75,-20.75 549.75,-20.75 617.5,-20.75 617.5,-20.75 623.5,-20.75 629.5,-26.75 629.5,-32.75 629.5,-32.75 629.5,-66.25 629.5,-66.25 629.5,-72.25 623.5,-78.25 617.5,-78.25"/>
<text xml:space="preserve" text-anchor="middle" x="583.62" y="-60.95" font-family="Times,serif" font-size="14.00">HTML</text>
<text xml:space="preserve" text-anchor="middle" x="583.62" y="-44.45" font-family="Times,serif" font-size="14.00">(Semantically</text>
<text xml:space="preserve" text-anchor="middle" x="583.62" y="-27.95" font-family="Times,serif" font-size="14.00">Enriched)</text>
</g>
<!-- html2&#45;&gt;html3 -->
<g id="edge4" class="edge">
<title>html2&#45;&gt;html3</title>
<path fill="none" stroke="black" d="M451.03,-49.5C474.73,-49.5 502.25,-49.5 525.98,-49.5"/>
<polygon fill="black" stroke="black" points="525.78,-53 535.78,-49.5 525.78,-46 525.78,-53"/>
<text xml:space="preserve" text-anchor="middle" x="494.25" y="-69.2" font-family="Times,serif" font-size="14.00">Semantic</text>
<text xml:space="preserve" text-anchor="middle" x="494.25" y="-52.7" font-family="Times,serif" font-size="14.00">Enricher</text>
</g>
</g>
</svg>
